<svg xmlns="http://www.w3.org/2000/svg" xmlns:xlink="http://www.w3.org/1999/xlink" width="1172" zoomAndPan="magnify" viewBox="0 0 878.88 203.999996" height="272" preserveAspectRatio="xMidYMid meet" version="1.0"><defs><g/><clipPath id="14361c1d5d"><path d="M 311.996094 60.621094 L 385.589844 60.621094 L 385.589844 134.214844 L 311.996094 134.214844 Z M 311.996094 60.621094 " clip-rule="nonzero"/></clipPath><clipPath id="6b9f46d0fe"><path d="M 348.792969 60.621094 C 328.46875 60.621094 311.996094 77.09375 311.996094 97.417969 C 311.996094 117.738281 328.46875 134.214844 348.792969 134.214844 C 369.113281 134.214844 385.589844 117.738281 385.589844 97.417969 C 385.589844 77.09375 369.113281 60.621094 348.792969 60.621094 Z M 348.792969 60.621094 " clip-rule="nonzero"/></clipPath><clipPath id="8017d6500e"><path d="M 323 63.417969 L 365 63.417969 L 365 91 L 323 91 Z M 323 63.417969 " clip-rule="nonzero"/></clipPath><clipPath id="7b80fbd3d6"><path d="M 315.265625 63.417969 L 374 63.417969 L 374 129 L 315.265625 129 Z M 315.265625 63.417969 " clip-rule="nonzero"/></clipPath><clipPath id="1ed93e08cb"><path d="M 354 91 L 381.253906 91 L 381.253906 129 L 354 129 Z M 354 91 " clip-rule="nonzero"/></clipPath><clipPath id="0ac680974c"><path d="M 325 85 L 372 85 L 372 129.40625 L 325 129.40625 Z M 325 85 " clip-rule="nonzero"/></clipPath></defs><g fill="#ffffff" fill-opacity="1"><g transform="translate(72.751733, 139.421932)"><g><path d="M 10.242188 0 L 64.25 0 C 68.273438 0 69.617188 -1.339844 69.617188 -5.363281 L 69.617188 -19.140625 C 69.617188 -23.164062 68.273438 -24.507812 64.25 -24.507812 L 33.164062 -24.507812 L 33.164062 -31.457031 L 56.570312 -31.457031 C 60.59375 -31.457031 61.933594 -32.796875 61.933594 -36.820312 L 61.933594 -50.476562 C 61.933594 -54.5 60.59375 -55.839844 56.570312 -55.839844 L 33.164062 -55.839844 L 33.164062 -62.179688 L 63.398438 -62.179688 C 67.421875 -62.179688 68.761719 -63.519531 68.761719 -67.542969 L 68.761719 -81.199219 C 68.761719 -85.222656 67.421875 -86.5625 63.398438 -86.5625 L 10.242188 -86.5625 C 6.21875 -86.5625 4.875 -85.222656 4.875 -81.199219 L 4.875 -5.363281 C 4.875 -1.339844 6.21875 0 10.242188 0 Z M 10.242188 0 "/></g></g></g><g fill="#ffffff" fill-opacity="1"><g transform="translate(144.9231, 139.421932)"><g><path d="M 10.242188 0 L 25.847656 0 C 29.871094 0 31.210938 -1.339844 31.210938 -5.363281 L 31.210938 -16.214844 C 31.210938 -30.480469 30.96875 -32.308594 26.699219 -51.695312 L 27.675781 -51.695312 C 33.285156 -33.40625 34.136719 -32.1875 38.890625 -24.507812 L 52.667969 -2.558594 C 53.886719 -0.730469 55.230469 0 57.910156 0 L 75.347656 0 C 79.371094 0 80.710938 -1.339844 80.710938 -5.363281 L 80.710938 -81.199219 C 80.710938 -85.222656 79.371094 -86.5625 75.347656 -86.5625 L 59.742188 -86.5625 C 55.71875 -86.5625 54.375 -85.222656 54.375 -81.199219 L 54.375 -70.105469 C 54.375 -58.277344 54.984375 -56.449219 61.449219 -35.480469 L 60.351562 -35.480469 C 54.011719 -50.839844 54.5 -50.960938 49.988281 -58.277344 L 34.136719 -84.125 C 33.039062 -85.832031 31.699219 -86.5625 28.894531 -86.5625 L 10.242188 -86.5625 C 6.21875 -86.5625 4.875 -85.222656 4.875 -81.199219 L 4.875 -5.363281 C 4.875 -1.339844 6.21875 0 10.242188 0 Z M 10.242188 0 "/></g></g></g><g fill="#ffffff" fill-opacity="1"><g transform="translate(230.50469, 139.421932)"><g><path d="M 29.140625 0 L 46.695312 0 C 50.71875 0 52.058594 -1.339844 52.058594 -5.363281 L 52.058594 -62.179688 L 69.25 -62.179688 C 73.273438 -62.179688 74.613281 -63.519531 74.613281 -67.542969 L 74.613281 -81.199219 C 74.613281 -85.222656 73.273438 -86.5625 69.25 -86.5625 L 6.582031 -86.5625 C 2.558594 -86.5625 1.21875 -85.222656 1.21875 -81.199219 L 1.21875 -67.542969 C 1.21875 -63.519531 2.558594 -62.179688 6.582031 -62.179688 L 23.773438 -62.179688 L 23.773438 -5.363281 C 23.773438 -1.339844 25.117188 0 29.140625 0 Z M 29.140625 0 "/></g></g></g><g fill="#ffffff" fill-opacity="1"><g transform="translate(306.333392, 139.421932)"><g><path d="M 41.941406 1.828125 C 66.933594 1.828125 80.832031 -11.703125 80.832031 -33.527344 L 80.832031 -53.035156 C 80.832031 -74.859375 66.933594 -88.390625 41.941406 -88.390625 C 16.945312 -88.390625 3.046875 -74.859375 3.046875 -53.035156 L 3.046875 -33.527344 C 3.046875 -11.703125 16.945312 1.828125 41.941406 1.828125 Z M 41.941406 -22.675781 C 35.234375 -22.675781 31.332031 -25.847656 31.332031 -31.941406 L 31.332031 -54.621094 C 31.332031 -60.714844 35.234375 -63.886719 41.941406 -63.886719 C 48.644531 -63.886719 52.546875 -60.714844 52.546875 -54.621094 L 52.546875 -31.941406 C 52.546875 -25.847656 48.644531 -22.675781 41.941406 -22.675781 Z M 41.941406 -22.675781 "/></g></g></g><g fill="#ffffff" fill-opacity="1"><g transform="translate(390.208232, 139.421932)"><g><path d="M 10.242188 0 L 26.457031 0 C 30.480469 0 31.820312 -1.21875 31.820312 -5.121094 L 31.820312 -12.558594 C 31.820312 -21.457031 31.457031 -26.699219 25.601562 -49.132812 L 27.066406 -49.132812 C 27.066406 -49.132812 31.941406 -34.136719 33.285156 -31.332031 L 38.769531 -19.261719 C 39.988281 -16.703125 41.332031 -15.726562 44.867188 -15.726562 L 55.59375 -15.726562 C 59.132812 -15.726562 60.472656 -16.824219 61.570312 -19.261719 L 66.8125 -31.332031 C 68.273438 -34.746094 73.640625 -49.132812 73.640625 -49.132812 L 75.101562 -49.132812 C 69.007812 -28.773438 68.519531 -21.457031 68.519531 -12.679688 L 68.519531 -5.121094 C 68.519531 -1.21875 69.859375 0 73.882812 0 L 91.195312 0 C 95.21875 0 96.558594 -1.21875 96.558594 -5.121094 L 96.558594 -81.441406 C 96.558594 -85.34375 95.21875 -86.5625 91.195312 -86.5625 L 75.46875 -86.5625 C 71.324219 -86.5625 69.980469 -86.074219 68.398438 -82.660156 L 50.476562 -44.988281 L 32.675781 -82.785156 C 31.210938 -85.953125 29.503906 -86.5625 25.117188 -86.5625 L 10.242188 -86.5625 C 6.21875 -86.5625 4.875 -85.34375 4.875 -81.441406 L 4.875 -5.121094 C 4.875 -1.21875 6.21875 0 10.242188 0 Z M 10.242188 0 "/></g></g></g><g fill="#ffffff" fill-opacity="1"><g transform="translate(491.638263, 139.421932)"><g><path d="M 41.941406 1.828125 C 66.933594 1.828125 80.832031 -11.703125 80.832031 -33.527344 L 80.832031 -53.035156 C 80.832031 -74.859375 66.933594 -88.390625 41.941406 -88.390625 C 16.945312 -88.390625 3.046875 -74.859375 3.046875 -53.035156 L 3.046875 -33.527344 C 3.046875 -11.703125 16.945312 1.828125 41.941406 1.828125 Z M 41.941406 -22.675781 C 35.234375 -22.675781 31.332031 -25.847656 31.332031 -31.941406 L 31.332031 -54.621094 C 31.332031 -60.714844 35.234375 -63.886719 41.941406 -63.886719 C 48.644531 -63.886719 52.546875 -60.714844 52.546875 -54.621094 L 52.546875 -31.941406 C 52.546875 -25.847656 48.644531 -22.675781 41.941406 -22.675781 Z M 41.941406 -22.675781 "/></g></g></g><g fill="#ffffff" fill-opacity="1"><g transform="translate(575.515731, 139.421932)"><g><path d="M 13.410156 0 L 17.554688 0 C 19.261719 0 19.871094 -0.609375 19.871094 -2.4375 L 19.871094 -39.867188 L 32.308594 -39.867188 C 41.941406 -39.867188 45.964844 -36.820312 49.742188 -29.261719 L 63.398438 -2.074219 C 64.25 -0.367188 65.105469 0 68.152344 0 L 72.054688 0 C 73.882812 0 74.128906 -1.097656 73.394531 -2.4375 L 57.910156 -32.550781 C 54.253906 -39.746094 50.109375 -44.257812 43.160156 -46.207031 L 72.054688 -84.246094 C 72.90625 -85.464844 72.542969 -86.5625 70.835938 -86.5625 L 66.445312 -86.5625 C 63.640625 -86.5625 62.910156 -86.199219 61.570312 -84.492188 L 34.257812 -47.914062 L 19.871094 -47.914062 L 19.871094 -84.125 C 19.871094 -85.953125 19.261719 -86.5625 17.554688 -86.5625 L 13.410156 -86.5625 C 11.703125 -86.5625 11.09375 -85.953125 11.09375 -84.125 L 11.09375 -2.4375 C 11.09375 -0.609375 11.703125 0 13.410156 0 Z M 13.410156 0 "/></g></g></g><g fill="#ffffff" fill-opacity="1"><g transform="translate(652.929278, 139.421932)"><g><path d="M 13.410156 0 L 64.375 0 C 66.203125 0 66.8125 -0.609375 66.8125 -2.4375 L 66.8125 -5.851562 C 66.8125 -7.679688 66.203125 -8.167969 64.375 -8.167969 L 19.871094 -8.167969 L 19.871094 -39.746094 L 57.425781 -39.746094 C 59.132812 -39.746094 59.742188 -40.355469 59.742188 -42.183594 L 59.742188 -45.597656 C 59.742188 -47.425781 59.132812 -48.035156 57.425781 -48.035156 L 19.871094 -48.035156 L 19.871094 -78.394531 L 62.910156 -78.394531 C 64.617188 -78.394531 65.226562 -78.882812 65.226562 -80.710938 L 65.226562 -84.125 C 65.226562 -85.953125 64.617188 -86.5625 62.910156 -86.5625 L 13.410156 -86.5625 C 11.703125 -86.5625 11.09375 -85.953125 11.09375 -84.125 L 11.09375 -2.4375 C 11.09375 -0.609375 11.703125 0 13.410156 0 Z M 13.410156 0 "/></g></g></g><g fill="#ffffff" fill-opacity="1"><g transform="translate(725.954033, 139.421932)"><g><path d="M 37.796875 0 L 41.820312 0 C 43.523438 0 44.136719 -0.609375 44.136719 -2.4375 L 44.136719 -35.113281 L 76.078125 -84.125 C 76.808594 -85.464844 76.566406 -86.5625 74.859375 -86.5625 L 70.226562 -86.5625 C 67.421875 -86.5625 66.691406 -86.441406 65.59375 -84.492188 L 39.867188 -44.257812 L 14.386719 -84.492188 C 13.289062 -86.441406 12.4375 -86.5625 9.753906 -86.5625 L 4.753906 -86.5625 C 3.046875 -86.5625 2.683594 -85.464844 3.535156 -84.125 L 35.355469 -35.234375 L 35.355469 -2.4375 C 35.355469 -0.609375 35.964844 0 37.796875 0 Z M 37.796875 0 "/></g></g></g><g clip-path="url(#14361c1d5d)"><g clip-path="url(#6b9f46d0fe)"><path fill="#ffffff" d="M 311.996094 60.621094 L 385.589844 60.621094 L 385.589844 134.214844 L 311.996094 134.214844 Z M 311.996094 60.621094 " fill-opacity="1" fill-rule="nonzero"/></g></g><g clip-path="url(#8017d6500e)"><path fill="#032c24" d="M 333.308594 90.558594 L 333.199219 90.484375 C 333.054688 90.375 318.914062 79.640625 324.335938 65.773438 C 324.726562 64.773438 325.851562 64.28125 326.851562 64.671875 C 327.855469 65.058594 328.339844 66.1875 327.953125 67.183594 C 323.59375 78.328125 335.398438 87.28125 335.515625 87.371094 C 336.375 88.011719 336.554688 89.226562 335.914062 90.085938 C 335.300781 90.910156 334.160156 91.105469 333.308594 90.558594 Z M 361.980469 89.75 L 361.871094 89.675781 C 361.726562 89.570312 347.589844 78.832031 353.011719 64.964844 C 353.398438 63.964844 354.523438 63.476562 355.523438 63.867188 C 356.527344 64.25 357.011719 65.378906 356.625 66.378906 C 352.269531 77.523438 364.070312 86.476562 364.191406 86.5625 C 365.050781 87.203125 365.226562 88.417969 364.589844 89.28125 C 363.976562 90.101562 362.832031 90.300781 361.980469 89.75 Z M 361.980469 89.75 " fill-opacity="1" fill-rule="nonzero"/></g><g clip-path="url(#7b80fbd3d6)"><path fill="#032c24" d="M 334.878906 89.75 L 334.988281 89.675781 C 335.132812 89.570312 349.269531 78.832031 343.847656 64.964844 C 343.460938 63.964844 342.332031 63.476562 341.335938 63.867188 C 340.332031 64.25 339.847656 65.378906 340.234375 66.378906 C 344.589844 77.523438 332.789062 86.476562 332.667969 86.5625 C 331.808594 87.203125 331.628906 88.417969 332.269531 89.28125 C 332.882812 90.101562 334.027344 90.300781 334.878906 89.75 Z M 317.128906 104.984375 C 316.859375 104.929688 316.59375 104.820312 316.359375 104.648438 C 315.492188 104.015625 315.300781 102.804688 315.933594 101.933594 C 324.480469 90.21875 339.824219 91.335938 340.476562 91.386719 C 341.539062 91.484375 342.332031 92.410156 342.25 93.476562 C 342.164062 94.542969 341.226562 95.339844 340.160156 95.257812 C 340.023438 95.246094 326.316406 94.285156 319.070312 104.222656 C 318.609375 104.851562 317.84375 105.125 317.128906 104.984375 Z M 324.476562 128.222656 C 324.234375 128.359375 323.960938 128.445312 323.671875 128.46875 C 322.601562 128.554688 321.667969 127.757812 321.582031 126.6875 C 320.433594 112.230469 332.804688 103.082031 333.332031 102.699219 C 334.203125 102.082031 335.410156 102.265625 336.039062 103.128906 C 336.671875 103.996094 336.476562 105.207031 335.613281 105.839844 C 335.5 105.921875 324.476562 114.125 325.453125 126.382812 C 325.511719 127.160156 325.109375 127.863281 324.476562 128.222656 Z M 363.496094 90.558594 L 363.605469 90.484375 C 363.75 90.375 377.890625 79.640625 372.46875 65.773438 C 372.078125 64.773438 370.953125 64.28125 369.957031 64.671875 C 368.949219 65.058594 368.464844 66.1875 368.851562 67.183594 C 373.210938 78.328125 361.40625 87.28125 361.289062 87.367188 C 360.429688 88.007812 360.25 89.222656 360.890625 90.085938 C 361.503906 90.910156 362.644531 91.105469 363.496094 90.558594 Z M 363.496094 90.558594 " fill-opacity="1" fill-rule="nonzero"/></g><g clip-path="url(#1ed93e08cb)"><path fill="#032c24" d="M 379.675781 104.984375 C 379.945312 104.929688 380.210938 104.820312 380.445312 104.648438 C 381.3125 104.015625 381.503906 102.804688 380.871094 101.933594 C 372.328125 90.21875 356.980469 91.335938 356.328125 91.386719 C 355.265625 91.484375 354.472656 92.410156 354.554688 93.476562 C 354.640625 94.542969 355.578125 95.339844 356.644531 95.257812 C 356.78125 95.246094 370.488281 94.285156 377.734375 104.222656 C 378.195312 104.851562 378.960938 105.125 379.675781 104.984375 Z M 372.332031 128.222656 C 372.570312 128.359375 372.84375 128.445312 373.132812 128.46875 C 374.203125 128.554688 375.136719 127.757812 375.222656 126.6875 C 376.371094 112.230469 364 103.082031 363.472656 102.699219 C 362.601562 102.082031 361.394531 102.265625 360.765625 103.128906 C 360.136719 103.996094 360.328125 105.207031 361.191406 105.839844 C 361.304688 105.921875 372.328125 114.125 371.351562 126.382812 C 371.292969 127.160156 371.695312 127.863281 372.332031 128.222656 Z M 372.332031 128.222656 " fill-opacity="1" fill-rule="nonzero"/></g><path fill="#032c24" d="M 360.550781 76.644531 C 360.429688 71.546875 356.230469 67.394531 348.425781 67.394531 C 340.785156 67.394531 336.417969 71.546875 336.296875 76.644531 C 331.039062 80.105469 327.601562 86.144531 327.601562 94.558594 C 327.601562 108.453125 336.925781 127.398438 348.425781 127.398438 C 359.925781 127.398438 369.246094 108.453125 369.246094 94.558594 C 369.246094 86.144531 365.808594 80.105469 360.550781 76.644531 Z M 360.550781 76.644531 " fill-opacity="1" fill-rule="nonzero"/><path fill="#ffffff" d="M 330.921875 82.148438 C 328.835938 85.425781 327.601562 89.5625 327.601562 94.558594 C 327.601562 108.453125 336.925781 127.398438 348.425781 127.398438 C 359.925781 127.398438 369.246094 108.453125 369.246094 94.558594 C 369.246094 89.558594 368.011719 85.417969 365.925781 82.140625 C 361.253906 81.375 355.433594 80.976562 348.445312 80.976562 C 341.429688 80.976562 335.597656 81.375 330.921875 82.148438 Z M 330.921875 82.148438 " fill-opacity="1" fill-rule="nonzero"/><path fill="#032c24" d="M 336.296875 76.644531 C 336.296875 76.644531 341.957031 75.15625 348.679688 75.15625 C 355.402344 75.15625 360.550781 76.644531 360.550781 76.644531 C 360.550781 76.644531 360.761719 67.394531 348.425781 67.394531 C 336.085938 67.394531 336.296875 76.644531 336.296875 76.644531 Z M 336.296875 76.644531 " fill-opacity="1" fill-rule="nonzero"/><g clip-path="url(#0ac680974c)"><path fill="#032c24" d="M 344.957031 129.40625 C 333.785156 128.253906 325 116.027344 325 101.113281 C 325 86.203125 333.535156 85.585938 342.609375 85.585938 C 345.390625 85.585938 346.691406 86.710938 346.691406 91.25 L 346.691406 127.226562 C 346.6875 129.5 345.527344 129.46875 344.957031 129.40625 Z M 351.546875 129.40625 C 362.71875 128.253906 371.503906 116.027344 371.503906 101.113281 C 371.503906 86.203125 362.96875 85.585938 353.898438 85.585938 C 351.113281 85.585938 349.8125 86.710938 349.8125 91.25 L 349.8125 127.226562 C 349.816406 129.5 350.976562 129.46875 351.546875 129.40625 Z M 351.546875 129.40625 " fill-opacity="1" fill-rule="nonzero"/></g><path fill="#ffffff" d="M 342.457031 126.34375 C 341.816406 126.34375 341.191406 126.027344 340.820312 125.445312 C 329.359375 107.496094 334.644531 86.96875 335.285156 84.6875 C 335.574219 83.65625 336.636719 83.046875 337.675781 83.34375 C 338.710938 83.632812 339.308594 84.703125 339.019531 85.734375 C 338.425781 87.84375 333.535156 106.828125 344.089844 123.359375 C 344.664062 124.261719 344.398438 125.460938 343.496094 126.039062 C 343.179688 126.246094 342.816406 126.34375 342.457031 126.34375 Z M 354.066406 126.34375 C 353.707031 126.34375 353.347656 126.246094 353.023438 126.039062 C 352.121094 125.460938 351.855469 124.261719 352.433594 123.359375 C 361.007812 109.933594 359.652344 93.390625 357.5 85.734375 C 357.210938 84.703125 357.8125 83.632812 358.84375 83.34375 C 359.878906 83.058594 360.949219 83.65625 361.238281 84.6875 C 361.878906 86.96875 367.167969 107.492188 355.699219 125.445312 C 355.335938 126.027344 354.710938 126.34375 354.066406 126.34375 Z M 354.066406 126.34375 " fill-opacity="1" fill-rule="nonzero"/><path fill="#ffffff" d="M 332.921875 82.59375 L 363.96875 82.59375 L 363.96875 88.414062 L 332.921875 88.414062 Z M 332.921875 82.59375 " fill-opacity="1" fill-rule="nonzero"/><path fill="#032c24" d="M 325.988281 93.625 C 326.855469 90.945312 328.78125 88.109375 331.042969 86.492188 C 333.144531 84.992188 335.148438 85.054688 334.546875 87.789062 C 332.6875 96.261719 324.796875 97.320312 325.988281 93.625 Z M 338.523438 87.960938 C 339.660156 84.605469 345.484375 84.332031 346.347656 88.09375 C 347.210938 91.851562 344.359375 92.113281 342.023438 92.027344 C 339.6875 91.9375 337.570312 90.773438 338.523438 87.960938 Z M 370.460938 93.625 C 369.59375 90.945312 367.667969 88.109375 365.402344 86.492188 C 363.304688 84.992188 361.300781 85.054688 361.902344 87.789062 C 363.757812 96.261719 371.652344 97.320312 370.460938 93.625 Z M 357.921875 87.960938 C 356.785156 84.605469 350.960938 84.332031 350.097656 88.09375 C 349.234375 91.851562 352.089844 92.113281 354.421875 92.027344 C 356.757812 91.9375 358.875 90.773438 357.921875 87.960938 Z M 357.921875 87.960938 " fill-opacity="1" fill-rule="nonzero"/></svg>