<svg xmlns="http://www.w3.org/2000/svg" xmlns:xlink="http://www.w3.org/1999/xlink" width="181" zoomAndPan="magnify" viewBox="0 0 135.75 42" height="56" preserveAspectRatio="xMidYMid meet" version="1.0"><defs><g/><clipPath id="812dfa853f"><path d="M 1.457031 0.015625 L 10.792969 0.015625 L 10.792969 9.351562 L 1.457031 9.351562 Z M 1.457031 0.015625 " clip-rule="nonzero"/></clipPath><clipPath id="4a41ccce3e"><path d="M 6.125 0.015625 C 3.546875 0.015625 1.457031 2.105469 1.457031 4.683594 C 1.457031 7.261719 3.546875 9.351562 6.125 9.351562 C 8.703125 9.351562 10.792969 7.261719 10.792969 4.683594 C 10.792969 2.105469 8.703125 0.015625 6.125 0.015625 Z M 6.125 0.015625 " clip-rule="nonzero"/></clipPath><clipPath id="ca20e79518"><path d="M 1.457031 10.21875 L 10.792969 10.21875 L 10.792969 19.105469 L 1.457031 19.105469 Z M 1.457031 10.21875 " clip-rule="nonzero"/></clipPath><clipPath id="aad6c2b7bc"><path d="M 4.386719 10.21875 L 7.863281 10.21875 C 8.640625 10.21875 9.386719 10.527344 9.9375 11.078125 C 10.484375 11.628906 10.792969 12.375 10.792969 13.148438 L 10.792969 16.175781 C 10.792969 16.953125 10.484375 17.699219 9.9375 18.25 C 9.386719 18.796875 8.640625 19.105469 7.863281 19.105469 L 4.386719 19.105469 C 3.609375 19.105469 2.863281 18.796875 2.316406 18.25 C 1.765625 17.699219 1.457031 16.953125 1.457031 16.175781 L 1.457031 13.148438 C 1.457031 12.375 1.765625 11.628906 2.316406 11.078125 C 2.863281 10.527344 3.609375 10.21875 4.386719 10.21875 Z M 4.386719 10.21875 " clip-rule="nonzero"/></clipPath><clipPath id="86298281be"><path d="M 1.457031 20.246094 L 10.792969 20.246094 L 10.792969 29.132812 L 1.457031 29.132812 Z M 1.457031 20.246094 " clip-rule="nonzero"/></clipPath><clipPath id="db59d0a2b8"><path d="M 4.386719 20.246094 L 7.863281 20.246094 C 8.640625 20.246094 9.386719 20.554688 9.9375 21.105469 C 10.484375 21.652344 10.792969 22.398438 10.792969 23.175781 L 10.792969 26.203125 C 10.792969 26.980469 10.484375 27.722656 9.9375 28.273438 C 9.386719 28.824219 8.640625 29.132812 7.863281 29.132812 L 4.386719 29.132812 C 3.609375 29.132812 2.863281 28.824219 2.316406 28.273438 C 1.765625 27.722656 1.457031 26.980469 1.457031 26.203125 L 1.457031 23.175781 C 1.457031 22.398438 1.765625 21.652344 2.316406 21.105469 C 2.863281 20.554688 3.609375 20.246094 4.386719 20.246094 Z M 4.386719 20.246094 " clip-rule="nonzero"/></clipPath><clipPath id="daeb9279e0"><path d="M 1.457031 30.464844 L 10.792969 30.464844 L 10.792969 39.351562 L 1.457031 39.351562 Z M 1.457031 30.464844 " clip-rule="nonzero"/></clipPath><clipPath id="a985dba4c9"><path d="M 4.386719 30.464844 L 7.863281 30.464844 C 8.640625 30.464844 9.386719 30.773438 9.9375 31.324219 C 10.484375 31.875 10.792969 32.621094 10.792969 33.394531 L 10.792969 36.421875 C 10.792969 37.199219 10.484375 37.945312 9.9375 38.492188 C 9.386719 39.042969 8.640625 39.351562 7.863281 39.351562 L 4.386719 39.351562 C 3.609375 39.351562 2.863281 39.042969 2.316406 38.492188 C 1.765625 37.945312 1.457031 37.199219 1.457031 36.421875 L 1.457031 33.394531 C 1.457031 32.621094 1.765625 31.875 2.316406 31.324219 C 2.863281 30.773438 3.609375 30.464844 4.386719 30.464844 Z M 4.386719 30.464844 " clip-rule="nonzero"/></clipPath><clipPath id="7adc9ff467"><path d="M 12.429688 10.21875 L 21.769531 10.21875 L 21.769531 19.105469 L 12.429688 19.105469 Z M 12.429688 10.21875 " clip-rule="nonzero"/></clipPath><clipPath id="a99e5c01a7"><path d="M 15.363281 10.21875 L 18.839844 10.21875 C 19.617188 10.21875 20.359375 10.527344 20.910156 11.078125 C 21.460938 11.628906 21.769531 12.375 21.769531 13.148438 L 21.769531 16.175781 C 21.769531 16.953125 21.460938 17.699219 20.910156 18.25 C 20.359375 18.796875 19.617188 19.105469 18.839844 19.105469 L 15.363281 19.105469 C 14.585938 19.105469 13.839844 18.796875 13.289062 18.25 C 12.742188 17.699219 12.429688 16.953125 12.429688 16.175781 L 12.429688 13.148438 C 12.429688 12.375 12.742188 11.628906 13.289062 11.078125 C 13.839844 10.527344 14.585938 10.21875 15.363281 10.21875 Z M 15.363281 10.21875 " clip-rule="nonzero"/></clipPath><clipPath id="0fe0de1ae8"><path d="M 12.429688 20.246094 L 21.769531 20.246094 L 21.769531 29.132812 L 12.429688 29.132812 Z M 12.429688 20.246094 " clip-rule="nonzero"/></clipPath><clipPath id="27b71a8f3b"><path d="M 15.363281 20.246094 L 18.839844 20.246094 C 19.617188 20.246094 20.359375 20.554688 20.910156 21.105469 C 21.460938 21.652344 21.769531 22.398438 21.769531 23.175781 L 21.769531 26.203125 C 21.769531 26.980469 21.460938 27.722656 20.910156 28.273438 C 20.359375 28.824219 19.617188 29.132812 18.839844 29.132812 L 15.363281 29.132812 C 14.585938 29.132812 13.839844 28.824219 13.289062 28.273438 C 12.742188 27.722656 12.429688 26.980469 12.429688 26.203125 L 12.429688 23.175781 C 12.429688 22.398438 12.742188 21.652344 13.289062 21.105469 C 13.839844 20.554688 14.585938 20.246094 15.363281 20.246094 Z M 15.363281 20.246094 " clip-rule="nonzero"/></clipPath><clipPath id="e2096849c2"><path d="M 12.429688 30.464844 L 21.769531 30.464844 L 21.769531 39.351562 L 12.429688 39.351562 Z M 12.429688 30.464844 " clip-rule="nonzero"/></clipPath><clipPath id="86a7614293"><path d="M 15.363281 30.464844 L 18.839844 30.464844 C 19.617188 30.464844 20.359375 30.773438 20.910156 31.324219 C 21.460938 31.875 21.769531 32.621094 21.769531 33.394531 L 21.769531 36.421875 C 21.769531 37.199219 21.460938 37.945312 20.910156 38.492188 C 20.359375 39.042969 19.617188 39.351562 18.839844 39.351562 L 15.363281 39.351562 C 14.585938 39.351562 13.839844 39.042969 13.289062 38.492188 C 12.742188 37.945312 12.429688 37.199219 12.429688 36.421875 L 12.429688 33.394531 C 12.429688 32.621094 12.742188 31.875 13.289062 31.324219 C 13.839844 30.773438 14.585938 30.464844 15.363281 30.464844 Z M 15.363281 30.464844 " clip-rule="nonzero"/></clipPath><clipPath id="82f7872523"><path d="M 12.429688 0 L 21.769531 0 L 21.769531 8.886719 L 12.429688 8.886719 Z M 12.429688 0 " clip-rule="nonzero"/></clipPath><clipPath id="3f9bbfb193"><path d="M 15.363281 0 L 18.839844 0 C 19.617188 0 20.359375 0.308594 20.910156 0.859375 C 21.460938 1.40625 21.769531 2.152344 21.769531 2.929688 L 21.769531 5.957031 C 21.769531 6.734375 21.460938 7.476562 20.910156 8.027344 C 20.359375 8.578125 19.617188 8.886719 18.839844 8.886719 L 15.363281 8.886719 C 14.585938 8.886719 13.839844 8.578125 13.289062 8.027344 C 12.742188 7.476562 12.429688 6.734375 12.429688 5.957031 L 12.429688 2.929688 C 12.429688 2.152344 12.742188 1.40625 13.289062 0.859375 C 13.839844 0.308594 14.585938 0 15.363281 0 Z M 15.363281 0 " clip-rule="nonzero"/></clipPath><clipPath id="8cb0ca072e"><path d="M 23.546875 0.464844 L 32.886719 0.464844 L 32.886719 9.351562 L 23.546875 9.351562 Z M 23.546875 0.464844 " clip-rule="nonzero"/></clipPath><clipPath id="b38a6a5df3"><path d="M 26.476562 0.464844 L 29.953125 0.464844 C 30.730469 0.464844 31.476562 0.773438 32.027344 1.324219 C 32.574219 1.871094 32.886719 2.617188 32.886719 3.394531 L 32.886719 6.421875 C 32.886719 7.199219 32.574219 7.945312 32.027344 8.492188 C 31.476562 9.042969 30.730469 9.351562 29.953125 9.351562 L 26.476562 9.351562 C 25.699219 9.351562 24.957031 9.042969 24.40625 8.492188 C 23.855469 7.945312 23.546875 7.199219 23.546875 6.421875 L 23.546875 3.394531 C 23.546875 2.617188 23.855469 1.871094 24.40625 1.324219 C 24.957031 0.773438 25.699219 0.464844 26.476562 0.464844 Z M 26.476562 0.464844 " clip-rule="nonzero"/></clipPath><clipPath id="a9df86dbb1"><path d="M 23.546875 20.246094 L 32.886719 20.246094 L 32.886719 29.132812 L 23.546875 29.132812 Z M 23.546875 20.246094 " clip-rule="nonzero"/></clipPath><clipPath id="ca8ea30724"><path d="M 26.476562 20.246094 L 29.953125 20.246094 C 30.730469 20.246094 31.476562 20.554688 32.027344 21.105469 C 32.574219 21.652344 32.886719 22.398438 32.886719 23.175781 L 32.886719 26.203125 C 32.886719 26.980469 32.574219 27.722656 32.027344 28.273438 C 31.476562 28.824219 30.730469 29.132812 29.953125 29.132812 L 26.476562 29.132812 C 25.699219 29.132812 24.957031 28.824219 24.40625 28.273438 C 23.855469 27.722656 23.546875 26.980469 23.546875 26.203125 L 23.546875 23.175781 C 23.546875 22.398438 23.855469 21.652344 24.40625 21.105469 C 24.957031 20.554688 25.699219 20.246094 26.476562 20.246094 Z M 26.476562 20.246094 " clip-rule="nonzero"/></clipPath></defs><g clip-path="url(#812dfa853f)"><g clip-path="url(#4a41ccce3e)"><path fill="#ffffff" d="M 1.457031 0.015625 L 10.792969 0.015625 L 10.792969 9.351562 L 1.457031 9.351562 Z M 1.457031 0.015625 " fill-opacity="1" fill-rule="nonzero"/></g></g><g clip-path="url(#ca20e79518)"><g clip-path="url(#aad6c2b7bc)"><path fill="#ffffff" d="M 1.457031 10.21875 L 10.792969 10.21875 L 10.792969 19.105469 L 1.457031 19.105469 Z M 1.457031 10.21875 " fill-opacity="1" fill-rule="nonzero"/></g></g><g clip-path="url(#86298281be)"><g clip-path="url(#db59d0a2b8)"><path fill="#ffffff" d="M 1.457031 20.246094 L 10.792969 20.246094 L 10.792969 29.132812 L 1.457031 29.132812 Z M 1.457031 20.246094 " fill-opacity="1" fill-rule="nonzero"/></g></g><g clip-path="url(#daeb9279e0)"><g clip-path="url(#a985dba4c9)"><path fill="#ffffff" d="M 1.457031 30.464844 L 10.792969 30.464844 L 10.792969 39.351562 L 1.457031 39.351562 Z M 1.457031 30.464844 " fill-opacity="1" fill-rule="nonzero"/></g></g><g clip-path="url(#7adc9ff467)"><g clip-path="url(#a99e5c01a7)"><path fill="#ffffff" d="M 12.429688 10.21875 L 21.769531 10.21875 L 21.769531 19.105469 L 12.429688 19.105469 Z M 12.429688 10.21875 " fill-opacity="1" fill-rule="nonzero"/></g></g><g clip-path="url(#0fe0de1ae8)"><g clip-path="url(#27b71a8f3b)"><path fill="#ffffff" d="M 12.429688 20.246094 L 21.769531 20.246094 L 21.769531 29.132812 L 12.429688 29.132812 Z M 12.429688 20.246094 " fill-opacity="1" fill-rule="nonzero"/></g></g><g clip-path="url(#e2096849c2)"><g clip-path="url(#86a7614293)"><path fill="#ffffff" d="M 12.429688 30.464844 L 21.769531 30.464844 L 21.769531 39.351562 L 12.429688 39.351562 Z M 12.429688 30.464844 " fill-opacity="1" fill-rule="nonzero"/></g></g><g clip-path="url(#82f7872523)"><g clip-path="url(#3f9bbfb193)"><path fill="#ffffff" d="M 12.429688 0 L 21.769531 0 L 21.769531 8.886719 L 12.429688 8.886719 Z M 12.429688 0 " fill-opacity="1" fill-rule="nonzero"/></g></g><g clip-path="url(#8cb0ca072e)"><g clip-path="url(#b38a6a5df3)"><path fill="#ffffff" d="M 23.546875 0.464844 L 32.886719 0.464844 L 32.886719 9.351562 L 23.546875 9.351562 Z M 23.546875 0.464844 " fill-opacity="1" fill-rule="nonzero"/></g></g><g clip-path="url(#a9df86dbb1)"><g clip-path="url(#ca8ea30724)"><path fill="#ffffff" d="M 23.546875 20.246094 L 32.886719 20.246094 L 32.886719 29.132812 L 23.546875 29.132812 Z M 23.546875 20.246094 " fill-opacity="1" fill-rule="nonzero"/></g></g><g fill="#ffffff" fill-opacity="1"><g transform="translate(38.796674, 16.729365)"><g><path d="M 2.015625 0 L 0.671875 0 L 0.671875 -6.546875 L 2.015625 -6.546875 Z M 2.015625 0 "/></g></g></g><g fill="#ffffff" fill-opacity="1"><g transform="translate(41.476221, 16.729365)"><g><path d="M 5.90625 0 L 4.5625 0 L 1.9375 -4.3125 L 1.9375 0 L 0.578125 0 L 0.578125 -6.546875 L 1.9375 -6.546875 L 4.5625 -2.234375 L 4.5625 -6.546875 L 5.90625 -6.546875 Z M 5.90625 0 "/></g></g></g><g fill="#ffffff" fill-opacity="1"><g transform="translate(47.96637, 16.729365)"><g><path d="M 3.984375 -1.71875 C 3.984375 -1.96875 3.890625 -2.160156 3.703125 -2.296875 C 3.523438 -2.429688 3.203125 -2.578125 2.734375 -2.734375 C 2.265625 -2.890625 1.894531 -3.039062 1.625 -3.1875 C 0.882812 -3.582031 0.515625 -4.117188 0.515625 -4.796875 C 0.515625 -5.148438 0.613281 -5.46875 0.8125 -5.75 C 1.007812 -6.03125 1.296875 -6.242188 1.671875 -6.390625 C 2.046875 -6.546875 2.460938 -6.625 2.921875 -6.625 C 3.390625 -6.625 3.804688 -6.539062 4.171875 -6.375 C 4.535156 -6.207031 4.816406 -5.96875 5.015625 -5.65625 C 5.222656 -5.351562 5.328125 -5.003906 5.328125 -4.609375 L 3.984375 -4.609375 C 3.984375 -4.910156 3.890625 -5.144531 3.703125 -5.3125 C 3.515625 -5.476562 3.25 -5.5625 2.90625 -5.5625 C 2.570312 -5.5625 2.3125 -5.488281 2.125 -5.34375 C 1.945312 -5.207031 1.859375 -5.023438 1.859375 -4.796875 C 1.859375 -4.585938 1.960938 -4.410156 2.171875 -4.265625 C 2.390625 -4.117188 2.707031 -3.984375 3.125 -3.859375 C 3.894531 -3.628906 4.453125 -3.34375 4.796875 -3 C 5.148438 -2.65625 5.328125 -2.226562 5.328125 -1.71875 C 5.328125 -1.15625 5.113281 -0.710938 4.6875 -0.390625 C 4.257812 -0.0664062 3.679688 0.09375 2.953125 0.09375 C 2.453125 0.09375 1.992188 0 1.578125 -0.1875 C 1.171875 -0.375 0.859375 -0.625 0.640625 -0.9375 C 0.421875 -1.257812 0.3125 -1.632812 0.3125 -2.0625 L 1.65625 -2.0625 C 1.65625 -1.332031 2.085938 -0.96875 2.953125 -0.96875 C 3.273438 -0.96875 3.523438 -1.03125 3.703125 -1.15625 C 3.890625 -1.289062 3.984375 -1.476562 3.984375 -1.71875 Z M 3.984375 -1.71875 "/></g></g></g><g fill="#ffffff" fill-opacity="1"><g transform="translate(53.617203, 16.729365)"><g><path d="M 5.515625 -5.453125 L 3.5 -5.453125 L 3.5 0 L 2.15625 0 L 2.15625 -5.453125 L 0.1875 -5.453125 L 0.1875 -6.546875 L 5.515625 -6.546875 Z M 5.515625 -5.453125 "/></g></g></g><g fill="#ffffff" fill-opacity="1"><g transform="translate(59.303942, 16.729365)"><g><path d="M 2.015625 0 L 0.671875 0 L 0.671875 -6.546875 L 2.015625 -6.546875 Z M 2.015625 0 "/></g></g></g><g fill="#ffffff" fill-opacity="1"><g transform="translate(61.983489, 16.729365)"><g><path d="M 5.515625 -5.453125 L 3.5 -5.453125 L 3.5 0 L 2.15625 0 L 2.15625 -5.453125 L 0.1875 -5.453125 L 0.1875 -6.546875 L 5.515625 -6.546875 Z M 5.515625 -5.453125 "/></g></g></g><g fill="#ffffff" fill-opacity="1"><g transform="translate(67.670228, 16.729365)"><g><path d="M 5.53125 -6.546875 L 5.53125 -2.234375 C 5.53125 -1.515625 5.304688 -0.945312 4.859375 -0.53125 C 4.410156 -0.113281 3.800781 0.09375 3.03125 0.09375 C 2.269531 0.09375 1.660156 -0.109375 1.203125 -0.515625 C 0.753906 -0.921875 0.523438 -1.476562 0.515625 -2.1875 L 0.515625 -6.546875 L 1.875 -6.546875 L 1.875 -2.21875 C 1.875 -1.789062 1.972656 -1.476562 2.171875 -1.28125 C 2.378906 -1.09375 2.664062 -1 3.03125 -1 C 3.789062 -1 4.175781 -1.394531 4.1875 -2.1875 L 4.1875 -6.546875 Z M 5.53125 -6.546875 "/></g></g></g><g fill="#ffffff" fill-opacity="1"><g transform="translate(73.720519, 16.729365)"><g><path d="M 5.515625 -5.453125 L 3.5 -5.453125 L 3.5 0 L 2.15625 0 L 2.15625 -5.453125 L 0.1875 -5.453125 L 0.1875 -6.546875 L 5.515625 -6.546875 Z M 5.515625 -5.453125 "/></g></g></g><g fill="#ffffff" fill-opacity="1"><g transform="translate(79.407259, 16.729365)"><g><path d="M 5.953125 -3.125 C 5.953125 -2.476562 5.835938 -1.910156 5.609375 -1.421875 C 5.390625 -0.941406 5.066406 -0.566406 4.640625 -0.296875 C 4.210938 -0.0351562 3.726562 0.09375 3.1875 0.09375 C 2.644531 0.09375 2.160156 -0.0351562 1.734375 -0.296875 C 1.304688 -0.554688 0.972656 -0.925781 0.734375 -1.40625 C 0.503906 -1.894531 0.390625 -2.457031 0.390625 -3.09375 L 0.390625 -3.40625 C 0.390625 -4.050781 0.503906 -4.617188 0.734375 -5.109375 C 0.960938 -5.597656 1.289062 -5.972656 1.71875 -6.234375 C 2.144531 -6.492188 2.628906 -6.625 3.171875 -6.625 C 3.710938 -6.625 4.195312 -6.492188 4.625 -6.234375 C 5.050781 -5.972656 5.378906 -5.597656 5.609375 -5.109375 C 5.835938 -4.617188 5.953125 -4.054688 5.953125 -3.421875 Z M 4.59375 -3.421875 C 4.59375 -4.109375 4.46875 -4.628906 4.21875 -4.984375 C 3.976562 -5.335938 3.628906 -5.515625 3.171875 -5.515625 C 2.722656 -5.515625 2.375 -5.335938 2.125 -4.984375 C 1.875 -4.640625 1.75 -4.125 1.75 -3.4375 L 1.75 -3.125 C 1.75 -2.457031 1.867188 -1.9375 2.109375 -1.5625 C 2.359375 -1.195312 2.71875 -1.015625 3.1875 -1.015625 C 3.632812 -1.015625 3.976562 -1.191406 4.21875 -1.546875 C 4.46875 -1.898438 4.59375 -2.414062 4.59375 -3.09375 Z M 4.59375 -3.421875 "/></g></g></g><g fill="#ffffff" fill-opacity="1"><g transform="translate(85.753781, 16.729365)"><g/></g></g><g fill="#ffffff" fill-opacity="1"><g transform="translate(88.042837, 16.729365)"><g><path d="M 4.515625 -2.671875 L 1.9375 -2.671875 L 1.9375 0 L 0.578125 0 L 0.578125 -6.546875 L 4.84375 -6.546875 L 4.84375 -5.453125 L 1.9375 -5.453125 L 1.9375 -3.765625 L 4.515625 -3.765625 Z M 4.515625 -2.671875 "/></g></g></g><g fill="#ffffff" fill-opacity="1"><g transform="translate(93.078762, 16.729365)"><g><path d="M 4.515625 -2.828125 L 1.9375 -2.828125 L 1.9375 -1.078125 L 4.96875 -1.078125 L 4.96875 0 L 0.578125 0 L 0.578125 -6.546875 L 4.96875 -6.546875 L 4.96875 -5.453125 L 1.9375 -5.453125 L 1.9375 -3.890625 L 4.515625 -3.890625 Z M 4.515625 -2.828125 "/></g></g></g><g fill="#ffffff" fill-opacity="1"><g transform="translate(98.249337, 16.729365)"><g><path d="M 0.578125 0 L 0.578125 -6.546875 L 2.59375 -6.546875 C 3.164062 -6.546875 3.679688 -6.414062 4.140625 -6.15625 C 4.597656 -5.894531 4.953125 -5.523438 5.203125 -5.046875 C 5.453125 -4.566406 5.578125 -4.023438 5.578125 -3.421875 L 5.578125 -3.125 C 5.578125 -2.507812 5.453125 -1.960938 5.203125 -1.484375 C 4.953125 -1.015625 4.597656 -0.648438 4.140625 -0.390625 C 3.691406 -0.128906 3.179688 0 2.609375 0 Z M 1.9375 -5.453125 L 1.9375 -1.078125 L 2.578125 -1.078125 C 3.109375 -1.078125 3.507812 -1.25 3.78125 -1.59375 C 4.0625 -1.9375 4.207031 -2.429688 4.21875 -3.078125 L 4.21875 -3.421875 C 4.21875 -4.085938 4.078125 -4.59375 3.796875 -4.9375 C 3.523438 -5.28125 3.125 -5.453125 2.59375 -5.453125 Z M 1.9375 -5.453125 "/></g></g></g><g fill="#ffffff" fill-opacity="1"><g transform="translate(104.223331, 16.729365)"><g><path d="M 4.515625 -2.828125 L 1.9375 -2.828125 L 1.9375 -1.078125 L 4.96875 -1.078125 L 4.96875 0 L 0.578125 0 L 0.578125 -6.546875 L 4.96875 -6.546875 L 4.96875 -5.453125 L 1.9375 -5.453125 L 1.9375 -3.890625 L 4.515625 -3.890625 Z M 4.515625 -2.828125 "/></g></g></g><g fill="#ffffff" fill-opacity="1"><g transform="translate(109.393906, 16.729365)"><g><path d="M 3 -2.390625 L 1.9375 -2.390625 L 1.9375 0 L 0.578125 0 L 0.578125 -6.546875 L 3.015625 -6.546875 C 3.785156 -6.546875 4.378906 -6.375 4.796875 -6.03125 C 5.222656 -5.6875 5.4375 -5.195312 5.4375 -4.5625 C 5.4375 -4.113281 5.335938 -3.738281 5.140625 -3.4375 C 4.953125 -3.144531 4.660156 -2.910156 4.265625 -2.734375 L 5.6875 -0.0625 L 5.6875 0 L 4.234375 0 Z M 1.9375 -3.484375 L 3.015625 -3.484375 C 3.359375 -3.484375 3.617188 -3.566406 3.796875 -3.734375 C 3.984375 -3.910156 4.078125 -4.148438 4.078125 -4.453125 C 4.078125 -4.765625 3.988281 -5.007812 3.8125 -5.1875 C 3.644531 -5.363281 3.378906 -5.453125 3.015625 -5.453125 L 1.9375 -5.453125 Z M 1.9375 -3.484375 "/></g></g></g><g fill="#ffffff" fill-opacity="1"><g transform="translate(115.260179, 16.729365)"><g><path d="M 4.28125 -1.34375 L 1.921875 -1.34375 L 1.46875 0 L 0.03125 0 L 2.46875 -6.546875 L 3.71875 -6.546875 L 6.171875 0 L 4.734375 0 Z M 2.28125 -2.4375 L 3.90625 -2.4375 L 3.09375 -4.890625 Z M 2.28125 -2.4375 "/></g></g></g><g fill="#ffffff" fill-opacity="1"><g transform="translate(121.445121, 16.729365)"><g><path d="M 1.9375 -1.078125 L 4.796875 -1.078125 L 4.796875 0 L 0.578125 0 L 0.578125 -6.546875 L 1.9375 -6.546875 Z M 1.9375 -1.078125 "/></g></g></g><g fill="#ffffff" fill-opacity="1"><g transform="translate(38.796674, 27.076463)"><g><path d="M 3.90625 -1.53125 L 1.453125 -1.53125 L 0.90625 0 L 0.109375 0 L 2.34375 -5.84375 L 3.015625 -5.84375 L 5.25 0 L 4.46875 0 Z M 1.6875 -2.15625 L 3.671875 -2.15625 L 2.6875 -4.890625 Z M 1.6875 -2.15625 "/></g></g><g transform="translate(44.160587, 27.076463)"><g><path d="M 1.265625 -4.34375 L 1.28125 -3.859375 C 1.59375 -4.234375 2.019531 -4.421875 2.5625 -4.421875 C 3.175781 -4.421875 3.59375 -4.1875 3.8125 -3.71875 C 3.957031 -3.925781 4.144531 -4.09375 4.375 -4.21875 C 4.601562 -4.351562 4.875 -4.421875 5.1875 -4.421875 C 6.144531 -4.421875 6.628906 -3.914062 6.640625 -2.90625 L 6.640625 0 L 5.90625 0 L 5.90625 -2.859375 C 5.90625 -3.171875 5.832031 -3.40625 5.6875 -3.5625 C 5.550781 -3.71875 5.3125 -3.796875 4.96875 -3.796875 C 4.695312 -3.796875 4.46875 -3.710938 4.28125 -3.546875 C 4.101562 -3.378906 4 -3.15625 3.96875 -2.875 L 3.96875 0 L 3.21875 0 L 3.21875 -2.84375 C 3.21875 -3.476562 2.910156 -3.796875 2.296875 -3.796875 C 1.804688 -3.796875 1.472656 -3.585938 1.296875 -3.171875 L 1.296875 0 L 0.5625 0 L 0.5625 -4.34375 Z M 1.265625 -4.34375 "/></g></g><g transform="translate(51.367341, 27.076463)"><g><path d="M 3.25 0 C 3.195312 -0.0820312 3.160156 -0.234375 3.140625 -0.453125 C 2.796875 -0.0976562 2.382812 0.078125 1.90625 0.078125 C 1.476562 0.078125 1.125 -0.0390625 0.84375 -0.28125 C 0.570312 -0.519531 0.4375 -0.828125 0.4375 -1.203125 C 0.4375 -1.648438 0.609375 -2 0.953125 -2.25 C 1.296875 -2.5 1.78125 -2.625 2.40625 -2.625 L 3.125 -2.625 L 3.125 -2.96875 C 3.125 -3.226562 3.046875 -3.4375 2.890625 -3.59375 C 2.734375 -3.75 2.503906 -3.828125 2.203125 -3.828125 C 1.941406 -3.828125 1.71875 -3.757812 1.53125 -3.625 C 1.351562 -3.488281 1.265625 -3.328125 1.265625 -3.140625 L 0.53125 -3.140625 C 0.53125 -3.359375 0.601562 -3.566406 0.75 -3.765625 C 0.90625 -3.960938 1.113281 -4.117188 1.375 -4.234375 C 1.644531 -4.359375 1.9375 -4.421875 2.25 -4.421875 C 2.75 -4.421875 3.140625 -4.296875 3.421875 -4.046875 C 3.710938 -3.796875 3.863281 -3.453125 3.875 -3.015625 L 3.875 -1.015625 C 3.875 -0.617188 3.921875 -0.300781 4.015625 -0.0625 L 4.015625 0 Z M 2.015625 -0.5625 C 2.242188 -0.5625 2.460938 -0.617188 2.671875 -0.734375 C 2.878906 -0.859375 3.03125 -1.019531 3.125 -1.21875 L 3.125 -2.109375 L 2.546875 -2.109375 C 1.640625 -2.109375 1.1875 -1.84375 1.1875 -1.3125 C 1.1875 -1.070312 1.257812 -0.882812 1.40625 -0.75 C 1.5625 -0.625 1.765625 -0.5625 2.015625 -0.5625 Z M 2.015625 -0.5625 "/></g></g><g transform="translate(55.839945, 27.076463)"><g><path d="M 1.265625 -0.609375 L 3.796875 -0.609375 L 3.796875 0 L 0.359375 0 L 0.359375 -0.546875 L 2.75 -3.734375 L 0.390625 -3.734375 L 0.390625 -4.34375 L 3.6875 -4.34375 L 3.6875 -3.8125 Z M 1.265625 -0.609375 "/></g></g><g transform="translate(59.915074, 27.076463)"><g><path d="M 0.359375 -2.21875 C 0.359375 -2.632812 0.441406 -3.015625 0.609375 -3.359375 C 0.773438 -3.703125 1.007812 -3.960938 1.3125 -4.140625 C 1.613281 -4.328125 1.953125 -4.421875 2.328125 -4.421875 C 2.921875 -4.421875 3.398438 -4.210938 3.765625 -3.796875 C 4.128906 -3.390625 4.3125 -2.847656 4.3125 -2.171875 L 4.3125 -2.125 C 4.3125 -1.695312 4.226562 -1.316406 4.0625 -0.984375 C 3.90625 -0.648438 3.675781 -0.390625 3.375 -0.203125 C 3.070312 -0.015625 2.726562 0.078125 2.34375 0.078125 C 1.75 0.078125 1.269531 -0.125 0.90625 -0.53125 C 0.539062 -0.9375 0.359375 -1.476562 0.359375 -2.15625 Z M 1.109375 -2.125 C 1.109375 -1.644531 1.21875 -1.257812 1.4375 -0.96875 C 1.664062 -0.675781 1.96875 -0.53125 2.34375 -0.53125 C 2.71875 -0.53125 3.015625 -0.675781 3.234375 -0.96875 C 3.460938 -1.257812 3.578125 -1.675781 3.578125 -2.21875 C 3.578125 -2.6875 3.460938 -3.066406 3.234375 -3.359375 C 3.003906 -3.660156 2.703125 -3.8125 2.328125 -3.8125 C 1.960938 -3.8125 1.664062 -3.664062 1.4375 -3.375 C 1.21875 -3.082031 1.109375 -2.664062 1.109375 -2.125 Z M 1.109375 -2.125 "/></g></g><g transform="translate(64.604483, 27.076463)"><g><path d="M 1.265625 -4.34375 L 1.28125 -3.796875 C 1.613281 -4.210938 2.050781 -4.421875 2.59375 -4.421875 C 3.507812 -4.421875 3.972656 -3.90625 3.984375 -2.875 L 3.984375 0 L 3.234375 0 L 3.234375 -2.875 C 3.234375 -3.1875 3.160156 -3.414062 3.015625 -3.5625 C 2.878906 -3.71875 2.660156 -3.796875 2.359375 -3.796875 C 2.117188 -3.796875 1.90625 -3.726562 1.71875 -3.59375 C 1.539062 -3.46875 1.398438 -3.300781 1.296875 -3.09375 L 1.296875 0 L 0.5625 0 L 0.5625 -4.34375 Z M 1.265625 -4.34375 "/></g></g><g transform="translate(69.141325, 27.076463)"><g><path d="M 3.25 0 C 3.195312 -0.0820312 3.160156 -0.234375 3.140625 -0.453125 C 2.796875 -0.0976562 2.382812 0.078125 1.90625 0.078125 C 1.476562 0.078125 1.125 -0.0390625 0.84375 -0.28125 C 0.570312 -0.519531 0.4375 -0.828125 0.4375 -1.203125 C 0.4375 -1.648438 0.609375 -2 0.953125 -2.25 C 1.296875 -2.5 1.78125 -2.625 2.40625 -2.625 L 3.125 -2.625 L 3.125 -2.96875 C 3.125 -3.226562 3.046875 -3.4375 2.890625 -3.59375 C 2.734375 -3.75 2.503906 -3.828125 2.203125 -3.828125 C 1.941406 -3.828125 1.71875 -3.757812 1.53125 -3.625 C 1.351562 -3.488281 1.265625 -3.328125 1.265625 -3.140625 L 0.53125 -3.140625 C 0.53125 -3.359375 0.601562 -3.566406 0.75 -3.765625 C 0.90625 -3.960938 1.113281 -4.117188 1.375 -4.234375 C 1.644531 -4.359375 1.9375 -4.421875 2.25 -4.421875 C 2.75 -4.421875 3.140625 -4.296875 3.421875 -4.046875 C 3.710938 -3.796875 3.863281 -3.453125 3.875 -3.015625 L 3.875 -1.015625 C 3.875 -0.617188 3.921875 -0.300781 4.015625 -0.0625 L 4.015625 0 Z M 2.015625 -0.5625 C 2.242188 -0.5625 2.460938 -0.617188 2.671875 -0.734375 C 2.878906 -0.859375 3.03125 -1.019531 3.125 -1.21875 L 3.125 -2.109375 L 2.546875 -2.109375 C 1.640625 -2.109375 1.1875 -1.84375 1.1875 -1.3125 C 1.1875 -1.070312 1.257812 -0.882812 1.40625 -0.75 C 1.5625 -0.625 1.765625 -0.5625 2.015625 -0.5625 Z M 2.015625 -0.5625 "/></g></g><g transform="translate(73.613929, 27.076463)"><g><path d="M 3.09375 -1.15625 C 3.09375 -1.351562 3.015625 -1.503906 2.859375 -1.609375 C 2.710938 -1.722656 2.453125 -1.820312 2.078125 -1.90625 C 1.703125 -1.988281 1.398438 -2.082031 1.171875 -2.1875 C 0.953125 -2.300781 0.789062 -2.4375 0.6875 -2.59375 C 0.582031 -2.75 0.53125 -2.9375 0.53125 -3.15625 C 0.53125 -3.507812 0.679688 -3.804688 0.984375 -4.046875 C 1.285156 -4.296875 1.671875 -4.421875 2.140625 -4.421875 C 2.628906 -4.421875 3.023438 -4.289062 3.328125 -4.03125 C 3.640625 -3.78125 3.796875 -3.457031 3.796875 -3.0625 L 3.046875 -3.0625 C 3.046875 -3.269531 2.957031 -3.445312 2.78125 -3.59375 C 2.613281 -3.738281 2.398438 -3.8125 2.140625 -3.8125 C 1.867188 -3.8125 1.65625 -3.75 1.5 -3.625 C 1.34375 -3.507812 1.265625 -3.359375 1.265625 -3.171875 C 1.265625 -2.992188 1.335938 -2.859375 1.484375 -2.765625 C 1.628906 -2.671875 1.882812 -2.582031 2.25 -2.5 C 2.625 -2.425781 2.925781 -2.328125 3.15625 -2.203125 C 3.382812 -2.085938 3.550781 -1.945312 3.65625 -1.78125 C 3.769531 -1.625 3.828125 -1.429688 3.828125 -1.203125 C 3.828125 -0.816406 3.671875 -0.503906 3.359375 -0.265625 C 3.054688 -0.0351562 2.65625 0.078125 2.15625 0.078125 C 1.8125 0.078125 1.503906 0.0195312 1.234375 -0.09375 C 0.960938 -0.21875 0.75 -0.390625 0.59375 -0.609375 C 0.445312 -0.835938 0.375 -1.082031 0.375 -1.34375 L 1.125 -1.34375 C 1.132812 -1.09375 1.234375 -0.894531 1.421875 -0.75 C 1.609375 -0.601562 1.851562 -0.53125 2.15625 -0.53125 C 2.4375 -0.53125 2.660156 -0.582031 2.828125 -0.6875 C 3.003906 -0.800781 3.09375 -0.957031 3.09375 -1.15625 Z M 3.09375 -1.15625 "/></g></g></g><g fill="#ffffff" fill-opacity="1"><g transform="translate(38.796674, 36.139013)"><g><path d="M 4.96875 -1.859375 C 4.90625 -1.234375 4.679688 -0.753906 4.296875 -0.421875 C 3.910156 -0.0859375 3.398438 0.078125 2.765625 0.078125 C 2.066406 0.078125 1.507812 -0.164062 1.09375 -0.65625 C 0.6875 -1.15625 0.484375 -1.820312 0.484375 -2.65625 L 0.484375 -3.203125 C 0.484375 -3.753906 0.578125 -4.234375 0.765625 -4.640625 C 0.960938 -5.054688 1.238281 -5.375 1.59375 -5.59375 C 1.945312 -5.8125 2.359375 -5.921875 2.828125 -5.921875 C 3.453125 -5.921875 3.953125 -5.75 4.328125 -5.40625 C 4.703125 -5.0625 4.914062 -4.582031 4.96875 -3.96875 L 4.203125 -3.96875 C 4.128906 -4.425781 3.984375 -4.757812 3.765625 -4.96875 C 3.546875 -5.1875 3.234375 -5.296875 2.828125 -5.296875 C 2.335938 -5.296875 1.953125 -5.113281 1.671875 -4.75 C 1.390625 -4.382812 1.25 -3.863281 1.25 -3.1875 L 1.25 -2.625 C 1.25 -1.988281 1.378906 -1.484375 1.640625 -1.109375 C 1.910156 -0.734375 2.285156 -0.546875 2.765625 -0.546875 C 3.191406 -0.546875 3.519531 -0.640625 3.75 -0.828125 C 3.976562 -1.023438 4.128906 -1.367188 4.203125 -1.859375 Z M 4.96875 -1.859375 "/></g></g><g transform="translate(44.148542, 36.139013)"><g><path d="M 3.25 0 C 3.195312 -0.0820312 3.160156 -0.234375 3.140625 -0.453125 C 2.796875 -0.0976562 2.382812 0.078125 1.90625 0.078125 C 1.476562 0.078125 1.125 -0.0390625 0.84375 -0.28125 C 0.570312 -0.519531 0.4375 -0.828125 0.4375 -1.203125 C 0.4375 -1.648438 0.609375 -2 0.953125 -2.25 C 1.296875 -2.5 1.78125 -2.625 2.40625 -2.625 L 3.125 -2.625 L 3.125 -2.96875 C 3.125 -3.226562 3.046875 -3.4375 2.890625 -3.59375 C 2.734375 -3.75 2.503906 -3.828125 2.203125 -3.828125 C 1.941406 -3.828125 1.71875 -3.757812 1.53125 -3.625 C 1.351562 -3.488281 1.265625 -3.328125 1.265625 -3.140625 L 0.53125 -3.140625 C 0.53125 -3.359375 0.601562 -3.566406 0.75 -3.765625 C 0.90625 -3.960938 1.113281 -4.117188 1.375 -4.234375 C 1.644531 -4.359375 1.9375 -4.421875 2.25 -4.421875 C 2.75 -4.421875 3.140625 -4.296875 3.421875 -4.046875 C 3.710938 -3.796875 3.863281 -3.453125 3.875 -3.015625 L 3.875 -1.015625 C 3.875 -0.617188 3.921875 -0.300781 4.015625 -0.0625 L 4.015625 0 Z M 2.015625 -0.5625 C 2.242188 -0.5625 2.460938 -0.617188 2.671875 -0.734375 C 2.878906 -0.859375 3.03125 -1.019531 3.125 -1.21875 L 3.125 -2.109375 L 2.546875 -2.109375 C 1.640625 -2.109375 1.1875 -1.84375 1.1875 -1.3125 C 1.1875 -1.070312 1.257812 -0.882812 1.40625 -0.75 C 1.5625 -0.625 1.765625 -0.5625 2.015625 -0.5625 Z M 2.015625 -0.5625 "/></g></g><g transform="translate(48.621146, 36.139013)"><g><path d="M 1.265625 -4.34375 L 1.28125 -3.859375 C 1.59375 -4.234375 2.019531 -4.421875 2.5625 -4.421875 C 3.175781 -4.421875 3.59375 -4.1875 3.8125 -3.71875 C 3.957031 -3.925781 4.144531 -4.09375 4.375 -4.21875 C 4.601562 -4.351562 4.875 -4.421875 5.1875 -4.421875 C 6.144531 -4.421875 6.628906 -3.914062 6.640625 -2.90625 L 6.640625 0 L 5.90625 0 L 5.90625 -2.859375 C 5.90625 -3.171875 5.832031 -3.40625 5.6875 -3.5625 C 5.550781 -3.71875 5.3125 -3.796875 4.96875 -3.796875 C 4.695312 -3.796875 4.46875 -3.710938 4.28125 -3.546875 C 4.101562 -3.378906 4 -3.15625 3.96875 -2.875 L 3.96875 0 L 3.21875 0 L 3.21875 -2.84375 C 3.21875 -3.476562 2.910156 -3.796875 2.296875 -3.796875 C 1.804688 -3.796875 1.472656 -3.585938 1.296875 -3.171875 L 1.296875 0 L 0.5625 0 L 0.5625 -4.34375 Z M 1.265625 -4.34375 "/></g></g><g transform="translate(55.827901, 36.139013)"><g><path d="M 4.234375 -2.125 C 4.234375 -1.457031 4.082031 -0.921875 3.78125 -0.515625 C 3.476562 -0.117188 3.066406 0.078125 2.546875 0.078125 C 2.015625 0.078125 1.597656 -0.0859375 1.296875 -0.421875 L 1.296875 1.671875 L 0.5625 1.671875 L 0.5625 -4.34375 L 1.234375 -4.34375 L 1.28125 -3.859375 C 1.582031 -4.234375 2 -4.421875 2.53125 -4.421875 C 3.050781 -4.421875 3.460938 -4.222656 3.765625 -3.828125 C 4.078125 -3.441406 4.234375 -2.894531 4.234375 -2.1875 Z M 3.484375 -2.203125 C 3.484375 -2.691406 3.378906 -3.078125 3.171875 -3.359375 C 2.960938 -3.648438 2.675781 -3.796875 2.3125 -3.796875 C 1.863281 -3.796875 1.523438 -3.59375 1.296875 -3.1875 L 1.296875 -1.125 C 1.523438 -0.726562 1.867188 -0.53125 2.328125 -0.53125 C 2.679688 -0.53125 2.960938 -0.671875 3.171875 -0.953125 C 3.378906 -1.234375 3.484375 -1.648438 3.484375 -2.203125 Z M 3.484375 -2.203125 "/></g></g><g transform="translate(60.441026, 36.139013)"><g><path d="M 3.25 -0.421875 C 2.957031 -0.0859375 2.53125 0.078125 1.96875 0.078125 C 1.507812 0.078125 1.15625 -0.0507812 0.90625 -0.3125 C 0.664062 -0.582031 0.546875 -0.984375 0.546875 -1.515625 L 0.546875 -4.34375 L 1.28125 -4.34375 L 1.28125 -1.53125 C 1.28125 -0.875 1.550781 -0.546875 2.09375 -0.546875 C 2.65625 -0.546875 3.03125 -0.757812 3.21875 -1.1875 L 3.21875 -4.34375 L 3.96875 -4.34375 L 3.96875 0 L 3.265625 0 Z M 3.25 -0.421875 "/></g></g><g transform="translate(64.973854, 36.139013)"><g><path d="M 3.09375 -1.15625 C 3.09375 -1.351562 3.015625 -1.503906 2.859375 -1.609375 C 2.710938 -1.722656 2.453125 -1.820312 2.078125 -1.90625 C 1.703125 -1.988281 1.398438 -2.082031 1.171875 -2.1875 C 0.953125 -2.300781 0.789062 -2.4375 0.6875 -2.59375 C 0.582031 -2.75 0.53125 -2.9375 0.53125 -3.15625 C 0.53125 -3.507812 0.679688 -3.804688 0.984375 -4.046875 C 1.285156 -4.296875 1.671875 -4.421875 2.140625 -4.421875 C 2.628906 -4.421875 3.023438 -4.289062 3.328125 -4.03125 C 3.640625 -3.78125 3.796875 -3.457031 3.796875 -3.0625 L 3.046875 -3.0625 C 3.046875 -3.269531 2.957031 -3.445312 2.78125 -3.59375 C 2.613281 -3.738281 2.398438 -3.8125 2.140625 -3.8125 C 1.867188 -3.8125 1.65625 -3.75 1.5 -3.625 C 1.34375 -3.507812 1.265625 -3.359375 1.265625 -3.171875 C 1.265625 -2.992188 1.335938 -2.859375 1.484375 -2.765625 C 1.628906 -2.671875 1.882812 -2.582031 2.25 -2.5 C 2.625 -2.425781 2.925781 -2.328125 3.15625 -2.203125 C 3.382812 -2.085938 3.550781 -1.945312 3.65625 -1.78125 C 3.769531 -1.625 3.828125 -1.429688 3.828125 -1.203125 C 3.828125 -0.816406 3.671875 -0.503906 3.359375 -0.265625 C 3.054688 -0.0351562 2.65625 0.078125 2.15625 0.078125 C 1.8125 0.078125 1.503906 0.0195312 1.234375 -0.09375 C 0.960938 -0.21875 0.75 -0.390625 0.59375 -0.609375 C 0.445312 -0.835938 0.375 -1.082031 0.375 -1.34375 L 1.125 -1.34375 C 1.132812 -1.09375 1.234375 -0.894531 1.421875 -0.75 C 1.609375 -0.601562 1.851562 -0.53125 2.15625 -0.53125 C 2.4375 -0.53125 2.660156 -0.582031 2.828125 -0.6875 C 3.003906 -0.800781 3.09375 -0.957031 3.09375 -1.15625 Z M 3.09375 -1.15625 "/></g></g><g transform="translate(69.213593, 36.139013)"><g/></g><g transform="translate(71.24915, 36.139013)"><g><path d="M 1.671875 -5.84375 L 3.578125 -1.078125 L 5.5 -5.84375 L 6.5 -5.84375 L 6.5 0 L 5.71875 0 L 5.71875 -2.28125 L 5.796875 -4.734375 L 3.875 0 L 3.28125 0 L 1.375 -4.71875 L 1.453125 -2.28125 L 1.453125 0 L 0.671875 0 L 0.671875 -5.84375 Z M 1.671875 -5.84375 "/></g></g><g transform="translate(78.4278, 36.139013)"><g><path d="M 3.25 0 C 3.195312 -0.0820312 3.160156 -0.234375 3.140625 -0.453125 C 2.796875 -0.0976562 2.382812 0.078125 1.90625 0.078125 C 1.476562 0.078125 1.125 -0.0390625 0.84375 -0.28125 C 0.570312 -0.519531 0.4375 -0.828125 0.4375 -1.203125 C 0.4375 -1.648438 0.609375 -2 0.953125 -2.25 C 1.296875 -2.5 1.78125 -2.625 2.40625 -2.625 L 3.125 -2.625 L 3.125 -2.96875 C 3.125 -3.226562 3.046875 -3.4375 2.890625 -3.59375 C 2.734375 -3.75 2.503906 -3.828125 2.203125 -3.828125 C 1.941406 -3.828125 1.71875 -3.757812 1.53125 -3.625 C 1.351562 -3.488281 1.265625 -3.328125 1.265625 -3.140625 L 0.53125 -3.140625 C 0.53125 -3.359375 0.601562 -3.566406 0.75 -3.765625 C 0.90625 -3.960938 1.113281 -4.117188 1.375 -4.234375 C 1.644531 -4.359375 1.9375 -4.421875 2.25 -4.421875 C 2.75 -4.421875 3.140625 -4.296875 3.421875 -4.046875 C 3.710938 -3.796875 3.863281 -3.453125 3.875 -3.015625 L 3.875 -1.015625 C 3.875 -0.617188 3.921875 -0.300781 4.015625 -0.0625 L 4.015625 0 Z M 2.015625 -0.5625 C 2.242188 -0.5625 2.460938 -0.617188 2.671875 -0.734375 C 2.878906 -0.859375 3.03125 -1.019531 3.125 -1.21875 L 3.125 -2.109375 L 2.546875 -2.109375 C 1.640625 -2.109375 1.1875 -1.84375 1.1875 -1.3125 C 1.1875 -1.070312 1.257812 -0.882812 1.40625 -0.75 C 1.5625 -0.625 1.765625 -0.5625 2.015625 -0.5625 Z M 2.015625 -0.5625 "/></g></g><g transform="translate(82.900404, 36.139013)"><g><path d="M 1.265625 -4.34375 L 1.28125 -3.796875 C 1.613281 -4.210938 2.050781 -4.421875 2.59375 -4.421875 C 3.507812 -4.421875 3.972656 -3.90625 3.984375 -2.875 L 3.984375 0 L 3.234375 0 L 3.234375 -2.875 C 3.234375 -3.1875 3.160156 -3.414062 3.015625 -3.5625 C 2.878906 -3.71875 2.660156 -3.796875 2.359375 -3.796875 C 2.117188 -3.796875 1.90625 -3.726562 1.71875 -3.59375 C 1.539062 -3.46875 1.398438 -3.300781 1.296875 -3.09375 L 1.296875 0 L 0.5625 0 L 0.5625 -4.34375 Z M 1.265625 -4.34375 "/></g></g><g transform="translate(87.437247, 36.139013)"><g><path d="M 3.25 0 C 3.195312 -0.0820312 3.160156 -0.234375 3.140625 -0.453125 C 2.796875 -0.0976562 2.382812 0.078125 1.90625 0.078125 C 1.476562 0.078125 1.125 -0.0390625 0.84375 -0.28125 C 0.570312 -0.519531 0.4375 -0.828125 0.4375 -1.203125 C 0.4375 -1.648438 0.609375 -2 0.953125 -2.25 C 1.296875 -2.5 1.78125 -2.625 2.40625 -2.625 L 3.125 -2.625 L 3.125 -2.96875 C 3.125 -3.226562 3.046875 -3.4375 2.890625 -3.59375 C 2.734375 -3.75 2.503906 -3.828125 2.203125 -3.828125 C 1.941406 -3.828125 1.71875 -3.757812 1.53125 -3.625 C 1.351562 -3.488281 1.265625 -3.328125 1.265625 -3.140625 L 0.53125 -3.140625 C 0.53125 -3.359375 0.601562 -3.566406 0.75 -3.765625 C 0.90625 -3.960938 1.113281 -4.117188 1.375 -4.234375 C 1.644531 -4.359375 1.9375 -4.421875 2.25 -4.421875 C 2.75 -4.421875 3.140625 -4.296875 3.421875 -4.046875 C 3.710938 -3.796875 3.863281 -3.453125 3.875 -3.015625 L 3.875 -1.015625 C 3.875 -0.617188 3.921875 -0.300781 4.015625 -0.0625 L 4.015625 0 Z M 2.015625 -0.5625 C 2.242188 -0.5625 2.460938 -0.617188 2.671875 -0.734375 C 2.878906 -0.859375 3.03125 -1.019531 3.125 -1.21875 L 3.125 -2.109375 L 2.546875 -2.109375 C 1.640625 -2.109375 1.1875 -1.84375 1.1875 -1.3125 C 1.1875 -1.070312 1.257812 -0.882812 1.40625 -0.75 C 1.5625 -0.625 1.765625 -0.5625 2.015625 -0.5625 Z M 2.015625 -0.5625 "/></g></g><g transform="translate(91.909851, 36.139013)"><g><path d="M 2.296875 -0.53125 C 2.566406 -0.53125 2.800781 -0.609375 3 -0.765625 C 3.195312 -0.921875 3.304688 -1.125 3.328125 -1.375 L 4.03125 -1.375 C 4.019531 -1.125 3.929688 -0.882812 3.765625 -0.65625 C 3.609375 -0.4375 3.398438 -0.257812 3.140625 -0.125 C 2.878906 0.0078125 2.597656 0.078125 2.296875 0.078125 C 1.710938 0.078125 1.242188 -0.117188 0.890625 -0.515625 C 0.546875 -0.910156 0.375 -1.445312 0.375 -2.125 L 0.375 -2.25 C 0.375 -2.675781 0.445312 -3.050781 0.59375 -3.375 C 0.75 -3.707031 0.972656 -3.960938 1.265625 -4.140625 C 1.554688 -4.328125 1.898438 -4.421875 2.296875 -4.421875 C 2.785156 -4.421875 3.191406 -4.273438 3.515625 -3.984375 C 3.835938 -3.691406 4.007812 -3.3125 4.03125 -2.84375 L 3.328125 -2.84375 C 3.304688 -3.125 3.195312 -3.351562 3 -3.53125 C 2.8125 -3.71875 2.578125 -3.8125 2.296875 -3.8125 C 1.921875 -3.8125 1.628906 -3.675781 1.421875 -3.40625 C 1.210938 -3.132812 1.109375 -2.742188 1.109375 -2.234375 L 1.109375 -2.09375 C 1.109375 -1.59375 1.210938 -1.207031 1.421875 -0.9375 C 1.628906 -0.664062 1.921875 -0.53125 2.296875 -0.53125 Z M 2.296875 -0.53125 "/></g></g><g transform="translate(96.213829, 36.139013)"><g><path d="M 3.25 0 C 3.195312 -0.0820312 3.160156 -0.234375 3.140625 -0.453125 C 2.796875 -0.0976562 2.382812 0.078125 1.90625 0.078125 C 1.476562 0.078125 1.125 -0.0390625 0.84375 -0.28125 C 0.570312 -0.519531 0.4375 -0.828125 0.4375 -1.203125 C 0.4375 -1.648438 0.609375 -2 0.953125 -2.25 C 1.296875 -2.5 1.78125 -2.625 2.40625 -2.625 L 3.125 -2.625 L 3.125 -2.96875 C 3.125 -3.226562 3.046875 -3.4375 2.890625 -3.59375 C 2.734375 -3.75 2.503906 -3.828125 2.203125 -3.828125 C 1.941406 -3.828125 1.71875 -3.757812 1.53125 -3.625 C 1.351562 -3.488281 1.265625 -3.328125 1.265625 -3.140625 L 0.53125 -3.140625 C 0.53125 -3.359375 0.601562 -3.566406 0.75 -3.765625 C 0.90625 -3.960938 1.113281 -4.117188 1.375 -4.234375 C 1.644531 -4.359375 1.9375 -4.421875 2.25 -4.421875 C 2.75 -4.421875 3.140625 -4.296875 3.421875 -4.046875 C 3.710938 -3.796875 3.863281 -3.453125 3.875 -3.015625 L 3.875 -1.015625 C 3.875 -0.617188 3.921875 -0.300781 4.015625 -0.0625 L 4.015625 0 Z M 2.015625 -0.5625 C 2.242188 -0.5625 2.460938 -0.617188 2.671875 -0.734375 C 2.878906 -0.859375 3.03125 -1.019531 3.125 -1.21875 L 3.125 -2.109375 L 2.546875 -2.109375 C 1.640625 -2.109375 1.1875 -1.84375 1.1875 -1.3125 C 1.1875 -1.070312 1.257812 -0.882812 1.40625 -0.75 C 1.5625 -0.625 1.765625 -0.5625 2.015625 -0.5625 Z M 2.015625 -0.5625 "/></g></g><g transform="translate(100.686433, 36.139013)"><g><path d="M 4.234375 -2.125 C 4.234375 -1.457031 4.082031 -0.921875 3.78125 -0.515625 C 3.476562 -0.117188 3.066406 0.078125 2.546875 0.078125 C 2.015625 0.078125 1.597656 -0.0859375 1.296875 -0.421875 L 1.296875 1.671875 L 0.5625 1.671875 L 0.5625 -4.34375 L 1.234375 -4.34375 L 1.28125 -3.859375 C 1.582031 -4.234375 2 -4.421875 2.53125 -4.421875 C 3.050781 -4.421875 3.460938 -4.222656 3.765625 -3.828125 C 4.078125 -3.441406 4.234375 -2.894531 4.234375 -2.1875 Z M 3.484375 -2.203125 C 3.484375 -2.691406 3.378906 -3.078125 3.171875 -3.359375 C 2.960938 -3.648438 2.675781 -3.796875 2.3125 -3.796875 C 1.863281 -3.796875 1.523438 -3.59375 1.296875 -3.1875 L 1.296875 -1.125 C 1.523438 -0.726562 1.867188 -0.53125 2.328125 -0.53125 C 2.679688 -0.53125 2.960938 -0.671875 3.171875 -0.953125 C 3.378906 -1.234375 3.484375 -1.648438 3.484375 -2.203125 Z M 3.484375 -2.203125 "/></g></g><g transform="translate(105.299559, 36.139013)"><g><path d="M 3.25 -0.421875 C 2.957031 -0.0859375 2.53125 0.078125 1.96875 0.078125 C 1.507812 0.078125 1.15625 -0.0507812 0.90625 -0.3125 C 0.664062 -0.582031 0.546875 -0.984375 0.546875 -1.515625 L 0.546875 -4.34375 L 1.28125 -4.34375 L 1.28125 -1.53125 C 1.28125 -0.875 1.550781 -0.546875 2.09375 -0.546875 C 2.65625 -0.546875 3.03125 -0.757812 3.21875 -1.1875 L 3.21875 -4.34375 L 3.96875 -4.34375 L 3.96875 0 L 3.265625 0 Z M 3.25 -0.421875 "/></g></g><g transform="translate(109.832386, 36.139013)"><g><path d="M 2.65625 -3.671875 C 2.539062 -3.691406 2.421875 -3.703125 2.296875 -3.703125 C 1.804688 -3.703125 1.472656 -3.492188 1.296875 -3.078125 L 1.296875 0 L 0.5625 0 L 0.5625 -4.34375 L 1.28125 -4.34375 L 1.296875 -3.84375 C 1.535156 -4.226562 1.878906 -4.421875 2.328125 -4.421875 C 2.472656 -4.421875 2.582031 -4.398438 2.65625 -4.359375 Z M 2.65625 -3.671875 "/></g></g><g transform="translate(112.614715, 36.139013)"><g><path d="M 3.25 -0.421875 C 2.957031 -0.0859375 2.53125 0.078125 1.96875 0.078125 C 1.507812 0.078125 1.15625 -0.0507812 0.90625 -0.3125 C 0.664062 -0.582031 0.546875 -0.984375 0.546875 -1.515625 L 0.546875 -4.34375 L 1.28125 -4.34375 L 1.28125 -1.53125 C 1.28125 -0.875 1.550781 -0.546875 2.09375 -0.546875 C 2.65625 -0.546875 3.03125 -0.757812 3.21875 -1.1875 L 3.21875 -4.34375 L 3.96875 -4.34375 L 3.96875 0 L 3.265625 0 Z M 3.25 -0.421875 "/></g></g></g></svg>