<?xml version="1.0" standalone="no"?>
<svg xmlns:xlink="http://www.w3.org/1999/xlink" id="wave" style="transform:rotate(0deg); transition: 0.3s" viewBox="0 0 1440 300" version="1.1" xmlns="http://www.w3.org/2000/svg"><defs><linearGradient id="sw-gradient-0" x1="0" x2="0" y1="1" y2="0"><stop stop-color="white" offset="0%"/><stop stop-color="white" offset="100%"/></linearGradient></defs><path style="transform:translate(0, 0px); opacity:1" fill="url(#sw-gradient-0)" d="M0,49L120,57.2C240,65,480,82,720,122.5C960,163,1200,229,1440,236.8C1680,245,1920,196,2160,179.7C2400,163,2640,180,2880,204.2C3120,229,3360,261,3600,294C3840,327,4080,359,4320,326.7C4560,294,4800,196,5040,155.2C5280,114,5520,131,5760,130.7C6000,131,6240,114,6480,147C6720,180,6960,261,7200,294C7440,327,7680,310,7920,253.2C8160,196,8400,98,8640,73.5C8880,49,9120,98,9360,114.3C9600,131,9840,114,10080,138.8C10320,163,10560,229,10800,245C11040,261,11280,229,11520,187.8C11760,147,12000,98,12240,122.5C12480,147,12720,245,12960,236.8C13200,229,13440,114,13680,106.2C13920,98,14160,196,14400,220.5C14640,245,14880,196,15120,204.2C15360,212,15600,278,15840,326.7C16080,376,16320,408,16560,351.2C16800,294,17040,147,17160,73.5L17280,0L17280,490L17160,490C17040,490,16800,490,16560,490C16320,490,16080,490,15840,490C15600,490,15360,490,15120,490C14880,490,14640,490,14400,490C14160,490,13920,490,13680,490C13440,490,13200,490,12960,490C12720,490,12480,490,12240,490C12000,490,11760,490,11520,490C11280,490,11040,490,10800,490C10560,490,10320,490,10080,490C9840,490,9600,490,9360,490C9120,490,8880,490,8640,490C8400,490,8160,490,7920,490C7680,490,7440,490,7200,490C6960,490,6720,490,6480,490C6240,490,6000,490,5760,490C5520,490,5280,490,5040,490C4800,490,4560,490,4320,490C4080,490,3840,490,3600,490C3360,490,3120,490,2880,490C2640,490,2400,490,2160,490C1920,490,1680,490,1440,490C1200,490,960,490,720,490C480,490,240,490,120,490L0,490Z"/></svg>
