<svg xmlns="http://www.w3.org/2000/svg" xmlns:xlink="http://www.w3.org/1999/xlink" width="500" zoomAndPan="magnify" viewBox="0 0 375 374.999991" height="500" preserveAspectRatio="xMidYMid meet" version="1.0"><path fill="#ffffff" d="M 315.832031 328.332031 L 12.5 328.332031 C 5.597656 328.332031 0 322.734375 0 315.832031 L 0 12.5 C 0 5.597656 5.597656 0 12.5 0 L 315.832031 0 C 322.734375 0 328.332031 5.597656 328.332031 12.5 L 328.332031 315.832031 C 328.332031 322.734375 322.734375 328.332031 315.832031 328.332031 Z M 25 303.332031 L 303.332031 303.332031 L 303.332031 25 L 25 25 Z M 25 303.332031 " fill-opacity="1" fill-rule="nonzero"/><path fill="#ffffff" d="M 315.832031 328.332031 L 12.5 328.332031 C 5.597656 328.332031 0 322.734375 0 315.832031 L 0 252.355469 C 0 248.675781 1.625 245.179688 4.4375 242.804688 L 224.402344 57.117188 C 226.945312 54.96875 230.210938 53.917969 233.570312 54.21875 C 236.882812 54.511719 239.953125 56.117188 242.078125 58.683594 L 325.445312 159.0625 C 327.3125 161.304688 328.332031 164.128906 328.332031 167.046875 L 328.332031 315.832031 C 328.332031 322.734375 322.734375 328.332031 315.832031 328.332031 Z M 25 303.332031 L 303.332031 303.332031 L 303.332031 171.5625 L 230.902344 84.351562 L 25 258.160156 Z M 25 303.332031 " fill-opacity="1" fill-rule="nonzero"/><path fill="#ffffff" d="M 166.898438 73.164062 C 166.898438 73.777344 166.871094 74.390625 166.808594 75 C 166.75 75.613281 166.660156 76.21875 166.539062 76.820312 C 166.417969 77.421875 166.269531 78.019531 166.09375 78.605469 C 165.914062 79.191406 165.707031 79.769531 165.472656 80.335938 C 165.238281 80.90625 164.976562 81.460938 164.6875 82 C 164.398438 82.542969 164.082031 83.070312 163.738281 83.578125 C 163.398438 84.089844 163.035156 84.582031 162.644531 85.058594 C 162.253906 85.53125 161.84375 85.988281 161.410156 86.421875 C 160.972656 86.855469 160.519531 87.265625 160.042969 87.65625 C 159.570312 88.046875 159.078125 88.410156 158.566406 88.753906 C 158.054688 89.09375 157.53125 89.410156 156.988281 89.699219 C 156.445312 89.988281 155.894531 90.25 155.324219 90.484375 C 154.757812 90.71875 154.179688 90.925781 153.59375 91.105469 C 153.003906 91.285156 152.410156 91.433594 151.808594 91.550781 C 151.207031 91.671875 150.597656 91.761719 149.988281 91.820312 C 149.375 91.882812 148.765625 91.914062 148.148438 91.914062 C 147.535156 91.914062 146.921875 91.882812 146.3125 91.820312 C 145.699219 91.761719 145.09375 91.671875 144.492188 91.550781 C 143.890625 91.433594 143.292969 91.285156 142.707031 91.105469 C 142.121094 90.925781 141.542969 90.71875 140.976562 90.484375 C 140.40625 90.25 139.851562 89.988281 139.3125 89.699219 C 138.769531 89.410156 138.242188 89.09375 137.734375 88.753906 C 137.222656 88.410156 136.730469 88.046875 136.253906 87.65625 C 135.78125 87.265625 135.324219 86.855469 134.890625 86.421875 C 134.457031 85.988281 134.046875 85.53125 133.65625 85.058594 C 133.265625 84.582031 132.902344 84.089844 132.558594 83.578125 C 132.21875 83.070312 131.902344 82.542969 131.613281 82 C 131.324219 81.460938 131.0625 80.90625 130.828125 80.335938 C 130.59375 79.769531 130.386719 79.191406 130.207031 78.605469 C 130.027344 78.019531 129.878906 77.421875 129.761719 76.820312 C 129.640625 76.21875 129.550781 75.613281 129.492188 75 C 129.429688 74.390625 129.398438 73.777344 129.398438 73.164062 C 129.398438 72.546875 129.429688 71.9375 129.492188 71.324219 C 129.550781 70.714844 129.640625 70.105469 129.761719 69.503906 C 129.878906 68.902344 130.027344 68.308594 130.207031 67.71875 C 130.386719 67.132812 130.59375 66.554688 130.828125 65.988281 C 131.0625 65.417969 131.324219 64.867188 131.613281 64.324219 C 131.902344 63.78125 132.21875 63.257812 132.558594 62.746094 C 132.902344 62.234375 133.265625 61.742188 133.65625 61.269531 C 134.046875 60.792969 134.457031 60.339844 134.890625 59.902344 C 135.324219 59.46875 135.78125 59.058594 136.253906 58.667969 C 136.730469 58.277344 137.222656 57.914062 137.734375 57.574219 C 138.242188 57.230469 138.769531 56.914062 139.3125 56.625 C 139.851562 56.335938 140.40625 56.074219 140.976562 55.839844 C 141.542969 55.605469 142.121094 55.398438 142.707031 55.21875 C 143.292969 55.042969 143.890625 54.890625 144.492188 54.773438 C 145.09375 54.652344 145.699219 54.5625 146.3125 54.503906 C 146.921875 54.441406 147.535156 54.414062 148.148438 54.414062 C 148.765625 54.414062 149.375 54.441406 149.988281 54.503906 C 150.597656 54.5625 151.207031 54.652344 151.808594 54.773438 C 152.410156 54.890625 153.003906 55.042969 153.59375 55.21875 C 154.179688 55.398438 154.757812 55.605469 155.324219 55.839844 C 155.894531 56.074219 156.445312 56.335938 156.988281 56.625 C 157.53125 56.914062 158.054688 57.230469 158.566406 57.574219 C 159.078125 57.914062 159.570312 58.277344 160.042969 58.667969 C 160.519531 59.058594 160.972656 59.46875 161.410156 59.902344 C 161.84375 60.339844 162.253906 60.792969 162.644531 61.269531 C 163.035156 61.742188 163.398438 62.234375 163.738281 62.746094 C 164.082031 63.257812 164.398438 63.78125 164.6875 64.324219 C 164.976562 64.867188 165.238281 65.417969 165.472656 65.988281 C 165.707031 66.554688 165.914062 67.132812 166.09375 67.71875 C 166.269531 68.308594 166.417969 68.902344 166.539062 69.503906 C 166.660156 70.105469 166.75 70.714844 166.808594 71.324219 C 166.871094 71.9375 166.898438 72.546875 166.898438 73.164062 Z M 166.898438 73.164062 " fill-opacity="1" fill-rule="nonzero"/><path fill="#ffffff" d="M 142.5625 142.5625 L 89.601562 89.601562 L 12.5 150.792969 L 12.5 252.355469 Z M 142.5625 142.5625 " fill-opacity="1" fill-rule="nonzero"/><path fill="#ffffff" d="M 12.5 264.855469 C 10.710938 264.855469 8.917969 264.472656 7.234375 263.691406 C 2.820312 261.644531 0 257.21875 0 252.355469 L 0 150.792969 C 0 146.980469 1.738281 143.371094 4.730469 141.003906 L 81.835938 79.816406 C 86.808594 75.847656 93.96875 76.277344 98.445312 80.769531 L 151.398438 133.722656 C 153.871094 136.195312 155.195312 139.59375 155.046875 143.085938 C 154.902344 146.582031 153.296875 149.851562 150.621094 152.113281 L 20.5625 261.90625 C 18.261719 263.847656 15.394531 264.855469 12.5 264.855469 Z M 25 156.828125 L 25 225.445312 L 124.101562 141.777344 L 88.648438 106.324219 Z M 25 156.828125 " fill-opacity="1" fill-rule="nonzero"/><path fill="#ffffff" d="M 362.5 375 L 59.167969 375 C 52.265625 375 46.667969 369.402344 46.667969 362.5 L 46.667969 315.832031 C 46.667969 308.929688 52.265625 303.332031 59.167969 303.332031 L 303.332031 303.332031 L 303.332031 59.167969 C 303.332031 52.265625 308.929688 46.667969 315.832031 46.667969 L 362.5 46.667969 C 369.402344 46.667969 375 52.265625 375 59.167969 L 375 362.5 C 375 369.402344 369.402344 375 362.5 375 Z M 71.667969 350 L 350 350 L 350 71.667969 L 328.332031 71.667969 L 328.332031 315.832031 C 328.332031 322.734375 322.734375 328.332031 315.832031 328.332031 L 71.667969 328.332031 Z M 71.667969 350 " fill-opacity="1" fill-rule="nonzero"/></svg>