<svg xmlns="http://www.w3.org/2000/svg" xmlns:xlink="http://www.w3.org/1999/xlink" width="500" zoomAndPan="magnify" viewBox="0 0 375 374.999991" height="500" preserveAspectRatio="xMidYMid meet" version="1.0"><defs><clipPath id="2c32a5df12"><path d="M 11.953125 10 L 362.953125 10 L 362.953125 375 L 11.953125 375 Z M 11.953125 10 " clip-rule="nonzero"/></clipPath></defs><g clip-path="url(#2c32a5df12)"><path fill="#ffffff" d="M 243.503906 251.890625 L 282.847656 197.976562 C 283.914062 196.515625 284.941406 195.035156 285.9375 193.53125 C 286.933594 192.027344 287.894531 190.5 288.820312 188.949219 C 289.746094 187.402344 290.636719 185.832031 291.488281 184.242188 C 292.34375 182.652344 293.160156 181.042969 293.941406 179.417969 C 294.71875 177.789062 295.460938 176.144531 296.167969 174.484375 C 296.871094 172.820312 297.539062 171.144531 298.164062 169.453125 C 298.792969 167.761719 299.382812 166.054688 299.929688 164.335938 C 300.480469 162.617188 300.988281 160.886719 301.460938 159.144531 C 301.929688 157.402344 302.359375 155.652344 302.75 153.890625 C 303.140625 152.128906 303.488281 150.355469 303.796875 148.578125 C 304.105469 146.800781 304.371094 145.015625 304.597656 143.226562 C 304.824219 141.4375 305.011719 139.640625 305.15625 137.84375 C 305.300781 136.042969 305.402344 134.242188 305.464844 132.441406 C 305.527344 130.636719 305.546875 128.832031 305.527344 127.027344 C 305.503906 125.222656 305.441406 123.421875 305.339844 121.617188 C 305.234375 119.816406 305.089844 118.019531 304.90625 116.222656 C 304.71875 114.429688 304.492188 112.640625 304.222656 110.855469 C 303.953125 109.070312 303.644531 107.292969 303.296875 105.523438 C 302.945312 103.753906 302.554688 101.992188 302.125 100.238281 C 301.695312 98.484375 301.222656 96.746094 300.714844 95.011719 C 300.203125 93.28125 299.652344 91.566406 299.0625 89.859375 C 298.476562 88.152344 297.847656 86.460938 297.179688 84.785156 C 296.511719 83.109375 295.808594 81.449219 295.066406 79.804688 C 294.324219 78.160156 293.542969 76.53125 292.722656 74.921875 C 291.90625 73.316406 291.054688 71.726562 290.164062 70.15625 C 289.273438 68.585938 288.347656 67.039062 287.382812 65.511719 C 286.421875 63.984375 285.425781 62.480469 284.394531 61 C 283.367188 59.515625 282.300781 58.058594 281.203125 56.628906 C 280.105469 55.195312 278.976562 53.789062 277.816406 52.40625 C 276.652344 51.027344 275.460938 49.671875 274.238281 48.347656 C 273.011719 47.019531 271.761719 45.722656 270.476562 44.457031 C 269.191406 43.1875 267.882812 41.949219 266.539062 40.738281 C 265.199219 39.53125 263.832031 38.355469 262.4375 37.207031 C 261.046875 36.0625 259.625 34.949219 258.179688 33.867188 C 256.734375 32.789062 255.265625 31.742188 253.773438 30.726562 C 252.277344 29.714844 250.761719 28.738281 249.226562 27.792969 C 247.6875 26.847656 246.128906 25.941406 244.546875 25.070312 C 242.96875 24.199219 241.371094 23.363281 239.75 22.5625 C 238.132812 21.765625 236.496094 21.003906 234.84375 20.277344 C 233.191406 19.554688 231.523438 18.871094 229.839844 18.222656 C 228.152344 17.574219 226.457031 16.964844 224.742188 16.398438 C 223.03125 15.828125 221.304688 15.296875 219.570312 14.808594 C 217.832031 14.316406 216.085938 13.867188 214.328125 13.457031 C 212.570312 13.046875 210.804688 12.675781 209.03125 12.347656 C 207.257812 12.019531 205.476562 11.730469 203.6875 11.484375 C 201.902344 11.234375 200.109375 11.03125 198.3125 10.863281 C 196.515625 10.699219 194.714844 10.574219 192.914062 10.492188 C 191.109375 10.410156 189.304688 10.367188 187.5 10.367188 C 185.695312 10.367188 183.894531 10.410156 182.089844 10.492188 C 180.289062 10.574219 178.488281 10.699219 176.691406 10.863281 C 174.894531 11.03125 173.101562 11.234375 171.316406 11.484375 C 169.527344 11.730469 167.746094 12.019531 165.972656 12.347656 C 164.199219 12.675781 162.433594 13.046875 160.675781 13.457031 C 158.917969 13.867188 157.171875 14.316406 155.433594 14.808594 C 153.695312 15.296875 151.972656 15.828125 150.261719 16.398438 C 148.546875 16.964844 146.847656 17.574219 145.164062 18.222656 C 143.480469 18.871094 141.8125 19.554688 140.160156 20.277344 C 138.503906 21.003906 136.871094 21.765625 135.25 22.5625 C 133.632812 23.363281 132.035156 24.199219 130.453125 25.070312 C 128.875 25.941406 127.316406 26.847656 125.777344 27.792969 C 124.238281 28.738281 122.722656 29.714844 121.230469 30.726562 C 119.738281 31.742188 118.269531 32.789062 116.824219 33.867188 C 115.378906 34.949219 113.957031 36.0625 112.5625 37.207031 C 111.167969 38.355469 109.800781 39.53125 108.460938 40.738281 C 107.121094 41.949219 105.808594 43.1875 104.527344 44.457031 C 103.242188 45.722656 101.988281 47.019531 100.765625 48.347656 C 99.542969 49.671875 98.347656 51.027344 97.1875 52.40625 C 96.023438 53.789062 94.894531 55.195312 93.796875 56.628906 C 92.699219 58.058594 91.636719 59.515625 90.605469 61 C 89.578125 62.480469 88.582031 63.984375 87.617188 65.511719 C 86.65625 67.039062 85.730469 68.585938 84.839844 70.15625 C 83.949219 71.726562 83.097656 73.316406 82.277344 74.921875 C 81.460938 76.53125 80.679688 78.160156 79.9375 79.804688 C 79.195312 81.449219 78.488281 83.109375 77.824219 84.785156 C 77.15625 86.460938 76.527344 88.152344 75.9375 89.859375 C 75.351562 91.566406 74.800781 93.28125 74.289062 95.011719 C 73.777344 96.746094 73.308594 98.484375 72.878906 100.238281 C 72.449219 101.992188 72.058594 103.753906 71.707031 105.523438 C 71.359375 107.292969 71.046875 109.070312 70.78125 110.855469 C 70.511719 112.640625 70.285156 114.429688 70.097656 116.222656 C 69.914062 118.019531 69.769531 119.816406 69.664062 121.617188 C 69.558594 123.421875 69.5 125.222656 69.476562 127.027344 C 69.457031 128.832031 69.476562 130.636719 69.539062 132.441406 C 69.601562 134.242188 69.703125 136.042969 69.847656 137.84375 C 69.992188 139.640625 70.175781 141.4375 70.402344 143.226562 C 70.628906 145.015625 70.898438 146.800781 71.207031 148.578125 C 71.515625 150.355469 71.863281 152.128906 72.253906 153.890625 C 72.644531 155.652344 73.074219 157.402344 73.542969 159.144531 C 74.011719 160.886719 74.523438 162.617188 75.074219 164.335938 C 75.621094 166.054688 76.210938 167.761719 76.839844 169.453125 C 77.464844 171.144531 78.132812 172.820312 78.835938 174.484375 C 79.542969 176.144531 80.285156 177.789062 81.0625 179.417969 C 81.84375 181.042969 82.660156 182.652344 83.515625 184.242188 C 84.367188 185.832031 85.257812 187.402344 86.183594 188.949219 C 87.109375 190.5 88.070312 192.027344 89.066406 193.53125 C 90.0625 195.035156 91.089844 196.515625 92.15625 197.976562 L 131.511719 251.90625 C 66.128906 259.179688 11.953125 279.421875 11.953125 311.773438 C 11.953125 353.089844 100.261719 374.707031 187.5 374.707031 C 274.738281 374.707031 363.046875 353.089844 363.046875 311.773438 C 363.046875 279.421875 308.886719 259.164062 243.503906 251.890625 Z M 108.207031 186.257812 C 107.324219 185.046875 106.464844 183.816406 105.636719 182.5625 C 104.808594 181.3125 104.011719 180.042969 103.242188 178.753906 C 102.472656 177.464844 101.730469 176.160156 101.019531 174.839844 C 100.3125 173.515625 99.632812 172.179688 98.984375 170.824219 C 98.335938 169.472656 97.71875 168.105469 97.132812 166.722656 C 96.546875 165.339844 95.992188 163.945312 95.46875 162.539062 C 94.949219 161.132812 94.457031 159.714844 94 158.285156 C 93.542969 156.855469 93.121094 155.417969 92.730469 153.96875 C 92.339844 152.519531 91.980469 151.0625 91.65625 149.597656 C 91.332031 148.128906 91.042969 146.660156 90.785156 145.179688 C 90.527344 143.703125 90.304688 142.21875 90.117188 140.730469 C 89.929688 139.238281 89.773438 137.746094 89.65625 136.25 C 89.535156 134.753906 89.449219 133.257812 89.398438 131.757812 C 89.347656 130.257812 89.328125 128.757812 89.347656 127.257812 C 89.363281 125.757812 89.414062 124.257812 89.503906 122.757812 C 89.589844 121.261719 89.707031 119.765625 89.863281 118.273438 C 90.019531 116.78125 90.207031 115.289062 90.429688 113.808594 C 90.652344 112.324219 90.910156 110.84375 91.203125 109.371094 C 91.492188 107.898438 91.816406 106.433594 92.175781 104.976562 C 92.53125 103.519531 92.925781 102.070312 93.347656 100.632812 C 93.773438 99.191406 94.230469 97.765625 94.71875 96.34375 C 95.210938 94.925781 95.734375 93.519531 96.289062 92.125 C 96.839844 90.730469 97.429688 89.351562 98.046875 87.984375 C 98.664062 86.613281 99.3125 85.261719 99.992188 83.925781 C 100.671875 82.585938 101.382812 81.265625 102.125 79.960938 C 102.863281 78.65625 103.632812 77.367188 104.433594 76.097656 C 105.234375 74.828125 106.0625 73.574219 106.917969 72.34375 C 107.773438 71.113281 108.660156 69.898438 109.574219 68.707031 C 110.484375 67.515625 111.425781 66.347656 112.390625 65.199219 C 113.355469 64.050781 114.347656 62.925781 115.367188 61.824219 C 116.382812 60.71875 117.425781 59.640625 118.496094 58.585938 C 119.5625 57.53125 120.652344 56.5 121.765625 55.496094 C 122.882812 54.492188 124.019531 53.511719 125.179688 52.558594 C 126.339844 51.605469 127.519531 50.679688 128.71875 49.78125 C 129.921875 48.882812 131.144531 48.011719 132.386719 47.167969 C 133.628906 46.328125 134.890625 45.511719 136.167969 44.730469 C 137.445312 43.945312 138.742188 43.1875 140.058594 42.464844 C 141.371094 41.738281 142.699219 41.042969 144.046875 40.378906 C 145.390625 39.714844 146.753906 39.082031 148.128906 38.480469 C 149.503906 37.878906 150.890625 37.308594 152.289062 36.769531 C 153.691406 36.230469 155.105469 35.726562 156.527344 35.25 C 157.953125 34.777344 159.386719 34.335938 160.832031 33.929688 C 162.273438 33.523438 163.726562 33.148438 165.1875 32.804688 C 166.652344 32.464844 168.121094 32.15625 169.59375 31.882812 C 171.070312 31.609375 172.550781 31.371094 174.039062 31.164062 C 175.523438 30.957031 177.015625 30.785156 178.507812 30.648438 C 180.003906 30.511719 181.5 30.410156 183 30.339844 C 184.5 30.269531 186 30.238281 187.5 30.238281 C 189 30.238281 190.5 30.269531 192 30.339844 C 193.5 30.410156 194.996094 30.511719 196.492188 30.648438 C 197.984375 30.785156 199.476562 30.957031 200.960938 31.164062 C 202.449219 31.371094 203.929688 31.609375 205.40625 31.882812 C 206.878906 32.15625 208.347656 32.464844 209.808594 32.804688 C 211.273438 33.148438 212.726562 33.523438 214.167969 33.929688 C 215.613281 34.335938 217.046875 34.777344 218.472656 35.25 C 219.894531 35.726562 221.308594 36.230469 222.710938 36.769531 C 224.109375 37.308594 225.496094 37.878906 226.871094 38.480469 C 228.246094 39.082031 229.609375 39.714844 230.953125 40.378906 C 232.300781 41.042969 233.628906 41.738281 234.941406 42.464844 C 236.257812 43.1875 237.554688 43.945312 238.832031 44.730469 C 240.109375 45.511719 241.371094 46.328125 242.613281 47.167969 C 243.855469 48.011719 245.078125 48.882812 246.277344 49.78125 C 247.480469 50.679688 248.660156 51.605469 249.820312 52.558594 C 250.980469 53.511719 252.117188 54.492188 253.234375 55.496094 C 254.347656 56.5 255.4375 57.53125 256.503906 58.585938 C 257.574219 59.640625 258.617188 60.71875 259.632812 61.820312 C 260.652344 62.925781 261.644531 64.050781 262.609375 65.199219 C 263.574219 66.347656 264.515625 67.515625 265.425781 68.707031 C 266.339844 69.898438 267.226562 71.113281 268.082031 72.34375 C 268.9375 73.574219 269.765625 74.828125 270.566406 76.097656 C 271.367188 77.367188 272.136719 78.65625 272.875 79.960938 C 273.617188 81.265625 274.328125 82.585938 275.007812 83.925781 C 275.6875 85.261719 276.335938 86.613281 276.953125 87.984375 C 277.570312 89.351562 278.160156 90.730469 278.710938 92.125 C 279.265625 93.519531 279.789062 94.925781 280.28125 96.34375 C 280.769531 97.765625 281.226562 99.191406 281.652344 100.632812 C 282.074219 102.070312 282.46875 103.519531 282.824219 104.976562 C 283.183594 106.433594 283.507812 107.898438 283.796875 109.371094 C 284.089844 110.84375 284.347656 112.324219 284.570312 113.808594 C 284.792969 115.289062 284.980469 116.78125 285.136719 118.273438 C 285.292969 119.765625 285.410156 121.261719 285.496094 122.757812 C 285.582031 124.257812 285.636719 125.757812 285.652344 127.257812 C 285.671875 128.757812 285.652344 130.257812 285.601562 131.757812 C 285.550781 133.257812 285.464844 134.753906 285.34375 136.25 C 285.226562 137.746094 285.070312 139.238281 284.882812 140.730469 C 284.695312 142.21875 284.472656 143.703125 284.214844 145.179688 C 283.957031 146.660156 283.667969 148.128906 283.34375 149.597656 C 283.019531 151.0625 282.660156 152.519531 282.269531 153.96875 C 281.878906 155.417969 281.457031 156.855469 281 158.285156 C 280.542969 159.714844 280.050781 161.132812 279.53125 162.539062 C 279.007812 163.945312 278.453125 165.339844 277.867188 166.722656 C 277.28125 168.105469 276.664062 169.472656 276.015625 170.824219 C 275.367188 172.179688 274.6875 173.515625 273.980469 174.839844 C 273.269531 176.160156 272.527344 177.464844 271.757812 178.753906 C 270.988281 180.042969 270.191406 181.3125 269.363281 182.5625 C 268.535156 183.816406 267.675781 185.046875 266.792969 186.257812 L 187.5 294.917969 Z M 187.5 354.832031 C 92.472656 354.832031 31.828125 329.332031 31.828125 311.773438 C 31.828125 297 74.878906 276.65625 145.125 270.5625 L 179.472656 317.632812 C 179.703125 317.945312 179.949219 318.246094 180.214844 318.53125 C 180.480469 318.816406 180.761719 319.085938 181.058594 319.339844 C 181.355469 319.59375 181.664062 319.828125 181.988281 320.042969 C 182.3125 320.257812 182.648438 320.457031 182.996094 320.632812 C 183.34375 320.808594 183.703125 320.964844 184.066406 321.097656 C 184.433594 321.234375 184.804688 321.347656 185.183594 321.4375 C 185.5625 321.527344 185.949219 321.597656 186.335938 321.640625 C 186.722656 321.6875 187.109375 321.710938 187.5 321.710938 C 187.890625 321.710938 188.277344 321.6875 188.664062 321.640625 C 189.050781 321.597656 189.4375 321.527344 189.816406 321.4375 C 190.195312 321.347656 190.566406 321.234375 190.933594 321.097656 C 191.296875 320.964844 191.65625 320.808594 192.003906 320.632812 C 192.351562 320.457031 192.6875 320.257812 193.011719 320.042969 C 193.335938 319.828125 193.644531 319.59375 193.941406 319.339844 C 194.238281 319.085938 194.519531 318.816406 194.785156 318.53125 C 195.050781 318.246094 195.296875 317.945312 195.527344 317.632812 L 229.875 270.5625 C 300.132812 276.652344 343.171875 297 343.171875 311.773438 C 343.171875 329.332031 282.527344 354.832031 187.5 354.832031 Z M 187.5 354.832031 " fill-opacity="1" fill-rule="nonzero"/></g><path fill="#ffffff" d="M 245.417969 128.398438 C 245.417969 126.503906 245.324219 124.609375 245.140625 122.722656 C 244.953125 120.835938 244.675781 118.960938 244.304688 117.101562 C 243.9375 115.238281 243.476562 113.402344 242.925781 111.585938 C 242.375 109.773438 241.734375 107.988281 241.011719 106.234375 C 240.285156 104.484375 239.472656 102.769531 238.582031 101.097656 C 237.6875 99.425781 236.710938 97.800781 235.660156 96.222656 C 234.605469 94.644531 233.476562 93.125 232.273438 91.65625 C 231.070312 90.191406 229.796875 88.789062 228.457031 87.445312 C 227.113281 86.105469 225.710938 84.832031 224.246094 83.628906 C 222.777344 82.425781 221.257812 81.296875 219.679688 80.242188 C 218.101562 79.1875 216.476562 78.214844 214.804688 77.320312 C 213.132812 76.425781 211.417969 75.617188 209.667969 74.890625 C 207.914062 74.164062 206.128906 73.527344 204.316406 72.976562 C 202.5 72.425781 200.664062 71.964844 198.800781 71.59375 C 196.941406 71.226562 195.066406 70.945312 193.179688 70.761719 C 191.292969 70.574219 189.398438 70.480469 187.503906 70.480469 C 185.605469 70.480469 183.714844 70.574219 181.828125 70.761719 C 179.9375 70.945312 178.066406 71.222656 176.203125 71.59375 C 174.34375 71.964844 172.507812 72.425781 170.691406 72.976562 C 168.875 73.527344 167.09375 74.164062 165.339844 74.890625 C 163.585938 75.617188 161.875 76.425781 160.203125 77.320312 C 158.527344 78.214844 156.902344 79.1875 155.328125 80.242188 C 153.75 81.296875 152.226562 82.425781 150.761719 83.628906 C 149.296875 84.832031 147.890625 86.101562 146.550781 87.445312 C 145.207031 88.785156 143.9375 90.1875 142.734375 91.65625 C 141.53125 93.121094 140.402344 94.644531 139.347656 96.21875 C 138.292969 97.796875 137.320312 99.421875 136.425781 101.09375 C 135.53125 102.769531 134.722656 104.480469 133.996094 106.234375 C 133.269531 107.984375 132.628906 109.769531 132.078125 111.585938 C 131.53125 113.398438 131.070312 115.238281 130.699219 117.097656 C 130.328125 118.957031 130.050781 120.832031 129.863281 122.71875 C 129.679688 124.605469 129.585938 126.5 129.585938 128.394531 C 129.585938 130.292969 129.679688 132.183594 129.863281 134.074219 C 130.050781 135.960938 130.328125 137.835938 130.699219 139.695312 C 131.066406 141.554688 131.527344 143.394531 132.078125 145.207031 C 132.628906 147.023438 133.269531 148.808594 133.992188 150.558594 C 134.71875 152.3125 135.53125 154.023438 136.421875 155.699219 C 137.316406 157.371094 138.292969 158.996094 139.34375 160.574219 C 140.398438 162.148438 141.527344 163.671875 142.730469 165.136719 C 143.933594 166.605469 145.207031 168.007812 146.546875 169.351562 C 147.890625 170.691406 149.292969 171.964844 150.757812 173.167969 C 152.226562 174.371094 153.746094 175.5 155.324219 176.550781 C 156.902344 177.605469 158.527344 178.582031 160.199219 179.476562 C 161.871094 180.367188 163.585938 181.179688 165.335938 181.90625 C 167.089844 182.632812 168.871094 183.269531 170.6875 183.820312 C 172.503906 184.371094 174.339844 184.832031 176.199219 185.199219 C 178.0625 185.570312 179.9375 185.847656 181.824219 186.035156 C 183.710938 186.222656 185.601562 186.3125 187.5 186.3125 C 189.394531 186.3125 191.289062 186.21875 193.175781 186.03125 C 195.0625 185.84375 196.933594 185.5625 198.792969 185.191406 C 200.652344 184.820312 202.492188 184.359375 204.304688 183.804688 C 206.121094 183.253906 207.902344 182.617188 209.652344 181.890625 C 211.40625 181.160156 213.117188 180.351562 214.789062 179.457031 C 216.460938 178.5625 218.085938 177.589844 219.660156 176.535156 C 221.238281 175.480469 222.757812 174.351562 224.222656 173.148438 C 225.691406 171.945312 227.09375 170.671875 228.433594 169.332031 C 229.773438 167.992188 231.046875 166.589844 232.25 165.125 C 233.453125 163.65625 234.582031 162.136719 235.636719 160.558594 C 236.691406 158.984375 237.664062 157.359375 238.558594 155.6875 C 239.453125 154.015625 240.265625 152.304688 240.992188 150.550781 C 241.71875 148.800781 242.355469 147.019531 242.910156 145.203125 C 243.460938 143.390625 243.921875 141.554688 244.292969 139.695312 C 244.664062 137.835938 244.945312 135.960938 245.132812 134.074219 C 245.320312 132.1875 245.414062 130.296875 245.417969 128.398438 Z M 149.457031 128.398438 C 149.457031 127.152344 149.519531 125.910156 149.640625 124.671875 C 149.761719 123.429688 149.945312 122.199219 150.1875 120.976562 C 150.433594 119.753906 150.734375 118.546875 151.097656 117.355469 C 151.457031 116.164062 151.878906 114.992188 152.355469 113.839844 C 152.832031 112.6875 153.363281 111.5625 153.949219 110.464844 C 154.539062 109.367188 155.175781 108.300781 155.871094 107.261719 C 156.5625 106.226562 157.304688 105.226562 158.09375 104.265625 C 158.882812 103.300781 159.71875 102.378906 160.601562 101.496094 C 161.480469 100.617188 162.402344 99.78125 163.367188 98.992188 C 164.328125 98.199219 165.328125 97.457031 166.367188 96.765625 C 167.402344 96.074219 168.46875 95.433594 169.566406 94.847656 C 170.667969 94.261719 171.792969 93.726562 172.941406 93.25 C 174.09375 92.773438 175.265625 92.355469 176.457031 91.992188 C 177.648438 91.632812 178.855469 91.328125 180.078125 91.085938 C 181.300781 90.84375 182.53125 90.660156 183.773438 90.539062 C 185.011719 90.417969 186.253906 90.355469 187.5 90.355469 C 188.746094 90.355469 189.988281 90.414062 191.230469 90.539062 C 192.46875 90.660156 193.699219 90.84375 194.921875 91.085938 C 196.144531 91.328125 197.351562 91.632812 198.542969 91.992188 C 199.738281 92.355469 200.910156 92.773438 202.058594 93.25 C 203.210938 93.726562 204.335938 94.257812 205.433594 94.847656 C 206.535156 95.433594 207.601562 96.074219 208.636719 96.765625 C 209.671875 97.457031 210.671875 98.199219 211.636719 98.988281 C 212.597656 99.78125 213.519531 100.617188 214.402344 101.496094 C 215.28125 102.378906 216.117188 103.300781 216.910156 104.261719 C 217.699219 105.226562 218.441406 106.226562 219.132812 107.261719 C 219.824219 108.296875 220.464844 109.367188 221.050781 110.464844 C 221.640625 111.5625 222.171875 112.6875 222.648438 113.839844 C 223.125 114.992188 223.542969 116.164062 223.90625 117.355469 C 224.269531 118.546875 224.570312 119.753906 224.8125 120.976562 C 225.054688 122.199219 225.238281 123.429688 225.359375 124.667969 C 225.484375 125.910156 225.542969 127.152344 225.542969 128.398438 C 225.542969 129.644531 225.484375 130.886719 225.359375 132.128906 C 225.238281 133.367188 225.054688 134.597656 224.8125 135.820312 C 224.570312 137.042969 224.269531 138.25 223.90625 139.441406 C 223.542969 140.632812 223.125 141.804688 222.648438 142.957031 C 222.171875 144.109375 221.640625 145.234375 221.050781 146.332031 C 220.464844 147.429688 219.824219 148.5 219.132812 149.535156 C 218.441406 150.570312 217.699219 151.570312 216.910156 152.53125 C 216.117188 153.496094 215.28125 154.417969 214.402344 155.300781 C 213.519531 156.179688 212.597656 157.015625 211.636719 157.804688 C 210.671875 158.597656 209.671875 159.335938 208.636719 160.03125 C 207.601562 160.722656 206.53125 161.363281 205.433594 161.949219 C 204.335938 162.535156 203.210938 163.070312 202.058594 163.546875 C 200.90625 164.023438 199.734375 164.441406 198.542969 164.804688 C 197.351562 165.164062 196.144531 165.46875 194.921875 165.710938 C 193.699219 165.953125 192.46875 166.136719 191.230469 166.257812 C 189.988281 166.378906 188.746094 166.441406 187.5 166.441406 C 186.253906 166.441406 185.011719 166.378906 183.773438 166.253906 C 182.53125 166.128906 181.304688 165.945312 180.082031 165.703125 C 178.859375 165.457031 177.652344 165.15625 176.460938 164.792969 C 175.269531 164.429688 174.097656 164.011719 172.949219 163.535156 C 171.796875 163.054688 170.675781 162.523438 169.574219 161.9375 C 168.476562 161.347656 167.410156 160.707031 166.375 160.015625 C 165.339844 159.324219 164.339844 158.582031 163.378906 157.792969 C 162.414062 157.003906 161.492188 156.167969 160.613281 155.285156 C 159.730469 154.40625 158.898438 153.484375 158.105469 152.519531 C 157.316406 151.558594 156.574219 150.558594 155.882812 149.523438 C 155.191406 148.488281 154.550781 147.421875 153.960938 146.324219 C 153.375 145.226562 152.84375 144.101562 152.367188 142.949219 C 151.886719 141.800781 151.46875 140.628906 151.105469 139.4375 C 150.742188 138.246094 150.441406 137.039062 150.195312 135.816406 C 149.953125 134.597656 149.769531 133.367188 149.644531 132.125 C 149.523438 130.886719 149.460938 129.644531 149.457031 128.398438 Z M 149.457031 128.398438 " fill-opacity="1" fill-rule="nonzero"/></svg>